<svg width="16" height="16" viewBox="0 0 16 16" fill="none" xmlns="http://www.w3.org/2000/svg">
<path d="M3.06445 11.6707C3.41277 11.7502 3.7622 11.8204 4.11035 11.8835C4.17488 12.2333 4.24515 12.5834 4.32422 12.9324C3.84626 12.5759 3.42183 12.1502 3.06445 11.6707Z" fill="white" stroke="white"/>
<path d="M12.9395 11.6707C12.5807 12.151 12.1534 12.5785 11.6709 12.9382C11.7563 12.5888 11.8311 12.2371 11.8965 11.8835C12.2457 11.8204 12.5934 11.7501 12.9395 11.6707Z" fill="white" stroke="white"/>
<path d="M11.6768 3.06274C12.1578 3.42177 12.584 3.84876 12.9424 4.33032C12.596 4.24593 12.2474 4.17115 11.8965 4.10474C11.8325 3.7556 11.7607 3.40772 11.6768 3.06274Z" fill="white" stroke="white"/>
<path d="M5.09966 2.06004C4.85966 2.87337 4.68633 3.70004 4.54633 4.54004C3.68633 4.67337 2.83299 4.88671 1.98633 5.14004C2.63299 3.80004 3.70633 2.70004 5.03299 2.04004C5.05299 2.04004 5.07966 2.06004 5.09966 2.06004Z" fill="white"/>
<path d="M10.3262 4.39325C8.77952 4.21992 7.21952 4.21992 5.67285 4.39325C5.83952 3.47992 6.05285 2.56659 6.35285 1.68659C6.36618 1.63325 6.35952 1.59325 6.36618 1.53992C6.89285 1.41325 7.43285 1.33325 7.99952 1.33325C8.55952 1.33325 9.10618 1.41325 9.62618 1.53992C9.63285 1.59325 9.63285 1.63325 9.64618 1.68659C9.94619 2.57325 10.1595 3.47992 10.3262 4.39325Z" fill="white"/>
<path d="M4.39301 10.3267C3.47301 10.16 2.56634 9.94667 1.68634 9.64667C1.63301 9.63334 1.59301 9.64001 1.53967 9.63334C1.41301 9.10667 1.33301 8.56667 1.33301 8.00001C1.33301 7.44001 1.41301 6.89334 1.53967 6.37334C1.59301 6.36667 1.63301 6.36667 1.68634 6.35334C2.57301 6.06001 3.47301 5.84001 4.39301 5.67334C4.22634 7.22001 4.22634 8.78001 4.39301 10.3267Z" fill="white"/>
<path d="M14.6664 8.00001C14.6664 8.56667 14.5864 9.10667 14.4598 9.63334C14.4064 9.64001 14.3664 9.63334 14.3131 9.64667C13.4264 9.94001 12.5198 10.16 11.6064 10.3267C11.7798 8.78001 11.7798 7.22001 11.6064 5.67334C12.5198 5.84001 13.4331 6.05334 14.3131 6.35334C14.3664 6.36667 14.4064 6.37334 14.4598 6.37334C14.5864 6.90001 14.6664 7.44001 14.6664 8.00001Z" fill="white"/>
<path d="M10.3262 11.6067C10.1595 12.5267 9.94619 13.4334 9.64618 14.3134C9.63285 14.3667 9.63285 14.4067 9.62618 14.46C9.10618 14.5867 8.55952 14.6667 7.99952 14.6667C7.43285 14.6667 6.89285 14.5867 6.36618 14.46C6.35952 14.4067 6.36618 14.3667 6.35285 14.3134C6.05952 13.4267 5.83952 12.5267 5.67285 11.6067C6.44618 11.6934 7.21952 11.7534 7.99952 11.7534C8.77952 11.7534 9.55952 11.6934 10.3262 11.6067Z" fill="white"/>
<path d="M10.5086 10.5088C8.84116 10.7192 7.15818 10.7192 5.49079 10.5088C5.28041 8.84141 5.28041 7.15843 5.49079 5.49103C7.15818 5.28066 8.84116 5.28066 10.5086 5.49103C10.7189 7.15843 10.7189 8.84141 10.5086 10.5088Z" fill="white"/>
</svg>
