<svg width="154" height="32" viewBox="0 0 154 32" fill="none" xmlns="http://www.w3.org/2000/svg">
<g clip-path="url(#clip0_1406_112635)">
<path d="M13.4247 29.8643C8.5082 29.8643 4.52246 25.8792 4.52246 20.9634C4.52246 16.0477 8.5082 12.0626 13.4247 12.0626H21.7184H24.6421H29.4632C34.3678 12.0626 38.3655 16.0358 38.3655 20.9634C38.3655 24.8054 39.3321 27.0246 40.3225 28.2893C41.2891 29.554 42.2677 29.8643 42.2677 29.8643H13.4247Z" fill="#7F51F2"/>
<path d="M24.0696 0C28.9861 0 32.9719 3.98509 32.9719 8.90082C32.9719 13.8166 28.9861 17.8016 24.0696 17.8016H20.5254H17.6017H12.7806C7.87602 17.8016 3.87834 13.8285 3.87834 8.90082C3.87834 5.05891 2.91174 2.83967 1.92127 1.57494C0.966602 0.310216 0 0 0 0H24.0696Z" fill="#00FBAE"/>
<path d="M47.2676 24.5667V4.92761H55.4061C56.7904 4.92761 57.9599 5.14238 58.8907 5.58384C59.8334 6.0253 60.5494 6.62187 61.0387 7.38548C61.5399 8.14909 61.7905 9.00815 61.7905 9.98652C61.7905 10.9291 61.5876 11.7285 61.1699 12.4086C60.7523 13.0887 60.2153 13.6137 59.5351 13.9835C58.8549 14.3534 58.1031 14.604 57.2797 14.7114L57.757 14.4011C58.6162 14.425 59.3799 14.6636 60.0482 15.117C60.7165 15.5823 61.2415 16.167 61.6353 16.8948C62.0291 17.6226 62.232 18.4101 62.232 19.2691C62.232 20.2833 61.9695 21.1901 61.4563 22.0014C60.9432 22.8128 60.2033 23.4332 59.2367 23.8866C58.2701 24.34 57.1126 24.5667 55.7641 24.5667H47.2676ZM51.2414 13.029H54.8214C55.7403 13.029 56.4563 12.8262 56.9694 12.4086C57.4825 11.991 57.7451 11.3825 57.7451 10.5831C57.7451 9.79562 57.4825 9.18712 56.9694 8.75759C56.4563 8.32806 55.7403 8.11329 54.8214 8.11329H51.2414V13.029ZM51.2414 21.3333H55.1794C56.1341 21.3333 56.8859 21.1185 57.4229 20.6771C57.9599 20.2356 58.2224 19.6032 58.2224 18.78C58.2224 17.9328 57.936 17.2766 57.3751 16.7993C56.8143 16.3221 56.0625 16.0835 55.1197 16.0835H51.2414V21.3333Z" fill="white"/>
<path d="M71.2773 24.7696C70.0363 24.7696 68.9742 24.5071 68.0673 23.9821C67.1723 23.4571 66.4682 22.6935 65.9789 21.7032C65.4896 20.7129 65.251 19.5078 65.251 18.0999V8.97241H69.189V17.384C69.189 18.6368 69.5112 19.6152 70.1437 20.3072C70.7761 20.9993 71.6234 21.3453 72.6735 21.3453C73.3895 21.3453 73.9981 21.1663 74.5113 20.7964C75.0244 20.4266 75.4301 19.9254 75.7046 19.2931C75.991 18.6607 76.1223 17.9329 76.1223 17.1216L76.7428 17.9329C76.6831 19.4959 76.3967 20.7726 75.8836 21.7867C75.3705 22.8009 74.7022 23.5406 73.9027 24.0298C73.1151 24.5309 72.232 24.7696 71.2773 24.7696ZM76.1461 22.4907V8.97241H80.1438V24.5667H78.2583C77.6259 24.5667 77.1127 24.3758 76.7189 23.994C76.3371 23.6122 76.1461 23.0992 76.1461 22.4907Z" fill="white"/>
<path d="M94.5241 12.1581L87.6505 21.3095H94.5718V24.5787H83.1396V21.393L89.9536 12.2416H83.1396V8.97241H94.5121V12.1581H94.5241Z" fill="white"/>
<path d="M108.688 12.1581L101.815 21.3095H108.736V24.5787H97.3037V21.393L104.118 12.2416H97.3037V8.97241H108.676V12.1581H108.688Z" fill="white"/>
<path d="M111.779 24.5667V4.92761H119.918C121.302 4.92761 122.472 5.14238 123.402 5.58384C124.345 6.0253 125.061 6.62187 125.55 7.38548C126.052 8.14909 126.29 9.00815 126.29 9.98652C126.29 10.9291 126.087 11.7285 125.67 12.4086C125.252 13.0887 124.715 13.6137 124.035 13.9835C123.355 14.3534 122.603 14.604 121.779 14.7114L122.257 14.4011C123.116 14.425 123.88 14.6636 124.548 15.117C125.216 15.5823 125.741 16.167 126.135 16.8948C126.529 17.6226 126.732 18.4101 126.732 19.2691C126.732 20.2833 126.469 21.1901 125.956 22.0014C125.443 22.8128 124.703 23.4332 123.737 23.8866C122.77 24.34 121.612 24.5667 120.264 24.5667H111.779ZM115.741 13.029H119.321C120.24 13.029 120.956 12.8262 121.469 12.4086C121.982 11.991 122.245 11.3825 122.245 10.5831C122.245 9.79562 121.982 9.18712 121.469 8.75759C120.956 8.32806 120.24 8.11329 119.321 8.11329H115.741V13.029ZM115.741 21.3333H119.679C120.634 21.3333 121.386 21.1185 121.923 20.6771C122.46 20.2356 122.722 19.6032 122.722 18.78C122.722 17.9328 122.436 17.2766 121.875 16.7993C121.314 16.3221 120.562 16.0835 119.62 16.0835H115.741V21.3333Z" fill="white"/>
<path d="M131.899 7.123C131.088 7.123 130.431 6.88437 129.918 6.40711C129.405 5.92986 129.143 5.32136 129.143 4.59354C129.143 3.87766 129.405 3.28109 129.918 2.7919C130.431 2.30271 131.1 2.06409 131.899 2.06409C132.687 2.06409 133.343 2.30271 133.868 2.7919C134.393 3.28109 134.656 3.87766 134.656 4.59354C134.656 5.32136 134.393 5.92986 133.868 6.40711C133.343 6.88437 132.687 7.123 131.899 7.123ZM129.871 24.5667V8.97236H133.868V24.5667H129.871Z" fill="white"/>
<path d="M147.019 24.7695C145.802 24.7695 144.716 24.4474 143.785 23.815C142.843 23.1827 142.186 22.2997 141.793 21.1662V32H137.795V8.97236H141.793V12.3728C142.186 11.2513 142.855 10.3683 143.785 9.72404C144.728 9.09168 145.802 8.76953 147.019 8.76953C148.368 8.76953 149.573 9.11554 150.623 9.79563C151.673 10.4757 152.497 11.4183 153.105 12.6234C153.702 13.8284 154 15.2006 154 16.7636C154 18.3027 153.702 19.6748 153.105 20.8918C152.509 22.0969 151.673 23.0514 150.623 23.7315C149.573 24.4235 148.368 24.7695 147.019 24.7695ZM145.862 21.3094C146.578 21.3094 147.246 21.1305 147.879 20.7844C148.511 20.4384 149.012 19.9254 149.382 19.2334C149.752 18.5533 149.943 17.73 149.943 16.7755C149.943 15.7971 149.752 14.9739 149.382 14.3176C149.012 13.6495 148.511 13.1364 147.891 12.7785C147.27 12.4205 146.602 12.2416 145.898 12.2416C145.182 12.2416 144.513 12.4205 143.881 12.7785C143.248 13.1364 142.747 13.6495 142.365 14.3176C141.984 14.9858 141.793 15.8091 141.793 16.7755C141.793 17.73 141.984 18.5533 142.365 19.2334C142.747 19.9135 143.248 20.4384 143.869 20.7844C144.49 21.1305 145.146 21.3094 145.862 21.3094Z" fill="white"/>
</g>
<defs>
<clipPath id="clip0_1406_112635">
<rect width="154" height="32" fill="white"/>
</clipPath>
</defs>
</svg>
