<svg width="161" height="63" viewBox="0 0 161 63" fill="none" xmlns="http://www.w3.org/2000/svg">
<g style="mix-blend-mode:multiply" opacity="0.1">
<path d="M155.457 12.6197C157.729 12.6197 157.729 8.20312 160 8.20312V63H1V36.4378C3.46072 36.4378 3.27144 38.0625 5.54286 38.0625C7.81429 38.0625 7.8143 33.4487 10.0857 33.4487C12.3571 33.4487 11.9786 34.8684 14.6286 34.8684C17.2786 34.8684 16.5214 37.5262 19.1714 37.5262C21.8214 37.5262 21.2536 36.5167 23.7143 36.5167C26.175 36.5167 25.7018 31.7058 28.2571 31.7058C30.8125 31.7058 30.15 33.2752 32.8 33.2752C35.45 33.2752 34.9768 35.4362 37.3429 35.4362C39.7089 35.4362 39.3304 28.2592 41.8857 28.2592C44.4411 28.2592 44.1571 30.7436 46.4286 30.7436C48.7 30.7436 48.3214 27.2655 50.9714 27.2655C53.6214 27.2655 53.0536 29.4896 55.5143 29.4896C57.975 29.4896 57.5964 20.3961 60.0571 20.3961C62.5179 20.3961 62.0446 22.9278 64.6 22.9278C67.1554 22.9278 66.4929 24.5998 69.1429 24.5998C71.7929 24.5998 71.1304 20.262 73.6857 20.262C76.2411 20.262 75.5786 22.3915 78.2286 22.3915C80.8786 22.3915 80.4054 18.8818 82.7714 18.8818C85.1375 18.8818 84.8536 13.0141 87.3143 13.0141C89.775 13.0141 89.3964 22.8331 91.8571 22.8331C94.3179 22.8331 94.0339 15.9558 96.4 15.9558C98.7661 15.9558 98.2929 18.9686 100.943 18.9686C103.593 18.9686 103.025 21.6738 105.486 21.6738C107.946 21.6738 107.662 17.1941 110.029 17.1941C112.395 17.1941 112.205 21.4529 114.571 21.4529C116.938 21.4529 116.654 19.5601 119.114 19.5601C121.575 19.5601 121.196 15.6561 123.657 15.6561C126.118 15.6561 125.739 17.2177 128.2 17.2177C130.661 17.2177 130.471 11.5156 132.743 11.5156C135.014 11.5156 134.636 19.3314 137.286 19.3314C139.936 19.3314 139.273 14.0236 141.829 14.0236C144.384 14.0236 144.005 16.2082 146.371 16.2082C148.738 16.2082 148.548 10.7663 150.914 10.7663C153.28 10.7663 153.186 12.6197 155.457 12.6197Z" fill="url(#paint0_linear_1698_135157)"/>
</g>
<path d="M160 8.20312C157.729 8.20312 157.729 12.6197 155.457 12.6197C153.186 12.6197 153.28 10.7663 150.914 10.7663C148.548 10.7663 148.738 16.2082 146.371 16.2082C144.005 16.2082 144.384 14.0236 141.829 14.0236C139.273 14.0236 139.936 19.3314 137.286 19.3314C134.636 19.3314 135.014 11.5156 132.743 11.5156C130.471 11.5156 130.661 17.2177 128.2 17.2177C125.739 17.2177 126.118 15.6561 123.657 15.6561C121.196 15.6561 121.575 19.5601 119.114 19.5601C116.654 19.5601 116.938 21.4529 114.571 21.4529C112.205 21.4529 112.395 17.1941 110.029 17.1941C107.663 17.1941 107.946 21.6738 105.486 21.6738C103.025 21.6738 103.593 18.9686 100.943 18.9686C98.2929 18.9686 98.7661 15.9558 96.4 15.9558C94.0339 15.9558 94.3179 22.8331 91.8571 22.8331C89.3964 22.8331 89.775 13.0141 87.3143 13.0141C84.8536 13.0141 85.1375 18.8818 82.7714 18.8818C80.4054 18.8818 80.8786 22.3915 78.2286 22.3915C75.5786 22.3915 76.2411 20.262 73.6857 20.262C71.1304 20.262 71.7929 24.5998 69.1429 24.5998C66.4929 24.5998 67.1554 22.9278 64.6 22.9278C62.0446 22.9278 62.5179 20.3961 60.0571 20.3961C57.5964 20.3961 57.975 29.4896 55.5143 29.4896C53.0536 29.4896 53.6214 27.2655 50.9714 27.2655C48.3214 27.2655 48.7 30.7436 46.4286 30.7436C44.1571 30.7436 44.4411 28.2592 41.8857 28.2592C39.3304 28.2592 39.7089 35.4362 37.3429 35.4362C34.9768 35.4362 35.45 33.2752 32.8 33.2752C30.15 33.2752 30.8125 31.7058 28.2571 31.7058C25.7018 31.7058 26.175 36.5167 23.7143 36.5167C21.2536 36.5167 21.8214 37.5262 19.1714 37.5262C16.5214 37.5262 17.2786 34.8684 14.6286 34.8684C11.9786 34.8684 12.3572 33.4487 10.0857 33.4487C7.81429 33.4487 7.81429 38.0625 5.54286 38.0625C3.27144 38.0625 3.46072 36.4378 1 36.4378" stroke="#FF7F3C" stroke-width="2" stroke-linecap="round" stroke-linejoin="round"/>
<defs>
<linearGradient id="paint0_linear_1698_135157" x1="80.5" y1="8.20313" x2="80.5" y2="60.5604" gradientUnits="userSpaceOnUse">
<stop stop-color="#FF7F3C"/>
<stop offset="1" stop-color="#FF7F3C" stop-opacity="0"/>
</linearGradient>
</defs>
</svg>
