<svg width="42" height="43" viewBox="0 0 42 43" fill="none" xmlns="http://www.w3.org/2000/svg">
<g filter="url(#filter0_d_1698_135198)">
<path d="M1 20C1 8.95431 9.95431 0 21 0C32.0457 0 41 8.95431 41 20C41 31.0457 32.0457 40 21 40C9.95431 40 1 31.0457 1 20Z" fill="#7F51F2" shape-rendering="crispEdges"/>
<path d="M28.4667 24.8667L27.1084 25.3251C26.7334 25.4501 26.4334 25.7417 26.3084 26.1251L25.8501 27.4834C25.4584 28.6584 23.8084 28.6334 23.4417 27.4584L21.9001 22.5001C21.6001 21.5167 22.5084 20.6001 23.4834 20.9084L28.4501 22.4501C29.6167 22.8167 29.6334 24.4751 28.4667 24.8667Z" fill="white"/>
<path d="M28.5002 19.5833C28.5002 19.9416 28.4752 20.2999 28.4335 20.6499C28.4002 20.8999 28.1418 21.0499 27.9002 20.9749L23.8585 19.7166C22.9585 19.4416 22.0002 19.6749 21.3335 20.3333C20.6668 20.9999 20.4252 21.9749 20.7085 22.8749L21.9585 26.8999C22.0335 27.1416 21.8752 27.3999 21.6252 27.4333C21.2752 27.4749 20.9335 27.4999 20.5835 27.4999C16.1335 27.4999 12.5502 23.8416 12.6668 19.3583C12.7835 15.2249 16.2252 11.7833 20.3585 11.6666C24.8418 11.5499 28.5002 15.1333 28.5002 19.5833Z" fill="white"/>
</g>
<defs>
<filter id="filter0_d_1698_135198" x="0" y="0" width="42" height="43" filterUnits="userSpaceOnUse" color-interpolation-filters="sRGB">
<feFlood flood-opacity="0" result="BackgroundImageFix"/>
<feColorMatrix in="SourceAlpha" type="matrix" values="0 0 0 0 0 0 0 0 0 0 0 0 0 0 0 0 0 0 127 0" result="hardAlpha"/>
<feOffset dy="2"/>
<feGaussianBlur stdDeviation="0.5"/>
<feComposite in2="hardAlpha" operator="out"/>
<feColorMatrix type="matrix" values="0 0 0 0 0.909804 0 0 0 0 0.960784 0 0 0 0 1 0 0 0 0.25 0"/>
<feBlend mode="normal" in2="BackgroundImageFix" result="effect1_dropShadow_1698_135198"/>
<feBlend mode="normal" in="SourceGraphic" in2="effect1_dropShadow_1698_135198" result="shape"/>
</filter>
</defs>
</svg>
