<svg width="42" height="43" viewBox="0 0 42 43" fill="none" xmlns="http://www.w3.org/2000/svg">
<g filter="url(#filter0_d_1698_135147)">
<path d="M1 20C1 8.95431 9.95431 0 21 0C32.0457 0 41 8.95431 41 20C41 31.0457 32.0457 40 21 40C9.95431 40 1 31.0457 1 20Z" fill="#FF7F3C" shape-rendering="crispEdges"/>
<path d="M18.5013 18.3334C20.3423 18.3334 21.8346 16.841 21.8346 15.0001C21.8346 13.1591 20.3423 11.6667 18.5013 11.6667C16.6604 11.6667 15.168 13.1591 15.168 15.0001C15.168 16.841 16.6604 18.3334 18.5013 18.3334Z" fill="white"/>
<path d="M18.5013 27.5009C21.723 27.5009 24.3346 26.0085 24.3346 24.1676C24.3346 22.3266 21.723 20.8342 18.5013 20.8342C15.2796 20.8342 12.668 22.3266 12.668 24.1676C12.668 26.0085 15.2796 27.5009 18.5013 27.5009Z" fill="white"/>
<path d="M28.5 24.167C28.5 25.5477 26.8037 26.6669 24.7326 26.6669C25.3428 26 25.7624 25.1628 25.7624 24.1681C25.7624 23.1722 25.3418 22.3343 24.7305 21.667C26.8016 21.667 28.5 22.7862 28.5 24.167Z" fill="white"/>
<path d="M25.9996 15.0005C25.9996 16.3812 24.8803 17.5005 23.4996 17.5005C23.1985 17.5005 22.9099 17.4473 22.6426 17.3497C23.0368 16.6563 23.262 15.8542 23.262 14.9996C23.262 14.1455 23.0372 13.344 22.6434 12.6509C22.9105 12.5536 23.1988 12.5005 23.4996 12.5005C24.8803 12.5005 25.9996 13.6198 25.9996 15.0005Z" fill="white"/>
</g>
<defs>
<filter id="filter0_d_1698_135147" x="0" y="0" width="42" height="43" filterUnits="userSpaceOnUse" color-interpolation-filters="sRGB">
<feFlood flood-opacity="0" result="BackgroundImageFix"/>
<feColorMatrix in="SourceAlpha" type="matrix" values="0 0 0 0 0 0 0 0 0 0 0 0 0 0 0 0 0 0 127 0" result="hardAlpha"/>
<feOffset dy="2"/>
<feGaussianBlur stdDeviation="0.5"/>
<feComposite in2="hardAlpha" operator="out"/>
<feColorMatrix type="matrix" values="0 0 0 0 0.909804 0 0 0 0 0.960784 0 0 0 0 1 0 0 0 0.25 0"/>
<feBlend mode="normal" in2="BackgroundImageFix" result="effect1_dropShadow_1698_135147"/>
<feBlend mode="normal" in="SourceGraphic" in2="effect1_dropShadow_1698_135147" result="shape"/>
</filter>
</defs>
</svg>
