<svg width="170" height="42" viewBox="0 0 170 42" fill="none" xmlns="http://www.w3.org/2000/svg">
<g clip-path="url(#clip0_2611_84701)">
<path d="M51.2773 29.5731H63.2293V25.9731H55.5253V12.4131H51.2773V29.5731Z" fill="#2F234F"/>
<path d="M70.3108 27.1732C68.6068 27.1732 67.7188 25.6852 67.7188 23.4532C67.7188 21.2212 68.6068 19.7092 70.3108 19.7092C72.0148 19.7092 72.9268 21.2212 72.9268 23.4532C72.9268 25.6852 72.0148 27.1732 70.3108 27.1732ZM70.3348 29.9572C74.2948 29.9572 76.8868 27.1492 76.8868 23.4532C76.8868 19.7572 74.2948 16.9492 70.3348 16.9492C66.3988 16.9492 63.7588 19.7572 63.7588 23.4532C63.7588 27.1492 66.3988 29.9572 70.3348 29.9572Z" fill="#2F234F"/>
<path d="M83.7406 33.8213C85.5646 33.8213 87.1726 33.4133 88.2526 32.4533C89.2366 31.5653 89.8846 30.2213 89.8846 28.3733V17.2853H86.1406V18.6053H86.0926C85.3726 17.5733 84.2686 16.9253 82.6366 16.9253C79.5886 16.9253 77.4766 19.4693 77.4766 23.0693C77.4766 26.8373 80.0446 28.9013 82.8046 28.9013C84.2926 28.9013 85.2286 28.3013 85.9486 27.4853H86.0446V28.7093C86.0446 30.1973 85.3486 31.0613 83.6926 31.0613C82.3966 31.0613 81.7486 30.5093 81.5326 29.8613H77.7406C78.1246 32.4293 80.3566 33.8213 83.7406 33.8213ZM83.7166 25.9973C82.2526 25.9973 81.2926 24.7973 81.2926 22.9493C81.2926 21.0773 82.2526 19.8773 83.7166 19.8773C85.3486 19.8773 86.2126 21.2693 86.2126 22.9253C86.2126 24.6533 85.4206 25.9973 83.7166 25.9973Z" fill="#2F234F"/>
<path d="M97.5832 27.1732C95.8792 27.1732 94.9912 25.6852 94.9912 23.4532C94.9912 21.2212 95.8792 19.7092 97.5832 19.7092C99.2872 19.7092 100.199 21.2212 100.199 23.4532C100.199 25.6852 99.2872 27.1732 97.5832 27.1732ZM97.6072 29.9572C101.567 29.9572 104.159 27.1492 104.159 23.4532C104.159 19.7572 101.567 16.9492 97.6072 16.9492C93.6712 16.9492 91.0312 19.7572 91.0312 23.4532C91.0312 27.1492 93.6712 29.9572 97.6072 29.9572Z" fill="#2F234F"/>
<path d="M105.302 29.5731H109.214V17.2851H105.302V29.5731ZM105.302 15.5811H109.214V12.4131H105.302V15.5811Z" fill="#2F234F"/>
<path d="M110.911 33.6293H114.823V28.3013H114.871C115.639 29.3333 116.767 29.9573 118.351 29.9573C121.567 29.9573 123.703 27.4133 123.703 23.4293C123.703 19.7333 121.711 16.9253 118.447 16.9253C116.767 16.9253 115.567 17.6693 114.727 18.7733H114.655V17.2853H110.911V33.6293ZM117.343 26.9333C115.663 26.9333 114.703 25.5653 114.703 23.5733C114.703 21.5813 115.567 20.0693 117.271 20.0693C118.951 20.0693 119.743 21.4613 119.743 23.5733C119.743 25.6613 118.831 26.9333 117.343 26.9333Z" fill="#2F234F"/>
<path d="M130.072 29.9573C133.288 29.9573 135.664 28.5653 135.664 25.8773C135.664 22.7333 133.12 22.1813 130.96 21.8213C129.4 21.5333 128.008 21.4133 128.008 20.5493C128.008 19.7813 128.752 19.4213 129.712 19.4213C130.792 19.4213 131.536 19.7573 131.68 20.8613H135.28C135.088 18.4373 133.216 16.9253 129.736 16.9253C126.832 16.9253 124.432 18.2693 124.432 20.8613C124.432 23.7413 126.712 24.3173 128.848 24.6773C130.48 24.9653 131.968 25.0853 131.968 26.1893C131.968 26.9813 131.224 27.4133 130.048 27.4133C128.752 27.4133 127.936 26.8133 127.792 25.5893H124.096C124.216 28.3013 126.472 29.9573 130.072 29.9573Z" fill="#2F234F"/>
<path d="M140.978 29.9332C142.682 29.9332 143.762 29.2612 144.65 28.0612H144.722V29.5732H148.466V17.2852H144.554V24.1492C144.554 25.6132 143.738 26.6212 142.394 26.6212C141.146 26.6212 140.546 25.8772 140.546 24.5332V17.2852H136.658V25.3492C136.658 28.0852 138.146 29.9332 140.978 29.9332Z" fill="#2F234F"/>
<path d="M150.168 29.5733H154.08V22.6853C154.08 21.2213 154.8 20.1893 156.024 20.1893C157.2 20.1893 157.752 20.9573 157.752 22.2773V29.5733H161.664V22.6853C161.664 21.2213 162.36 20.1893 163.608 20.1893C164.784 20.1893 165.336 20.9573 165.336 22.2773V29.5733H169.248V21.5813C169.248 18.8213 167.856 16.9253 165.072 16.9253C163.488 16.9253 162.168 17.5973 161.208 19.0853H161.16C160.536 17.7653 159.312 16.9253 157.704 16.9253C155.928 16.9253 154.752 17.7653 153.984 19.0373H153.912V17.2853H150.168V29.5733Z" fill="#2F234F"/>
<path fill-rule="evenodd" clip-rule="evenodd" d="M20.1015 40.5732C31.1473 40.5732 40.1015 31.6189 40.1015 20.5732C40.1015 9.52754 31.1473 0.573242 20.1015 0.573242C9.05585 0.573242 0.101562 9.52754 0.101562 20.5732C0.101562 31.6189 9.05585 40.5732 20.1015 40.5732ZM23.1885 16.0258C24.8933 14.3209 24.8933 11.5568 23.1885 9.8519C21.4836 8.14702 18.7195 8.14702 17.0146 9.8519C15.3098 11.5568 15.3098 14.3209 17.0146 16.0258L20.1015 19.1127L23.1885 16.0258ZM24.649 23.6602C26.3539 25.3651 29.118 25.3651 30.8229 23.6602C32.5277 21.9553 32.5277 19.1912 30.8229 17.4863C29.118 15.7815 26.3539 15.7815 24.649 17.4863L21.5621 20.5733L24.649 23.6602ZM23.1885 31.2946C24.8933 29.5897 24.8933 26.8256 23.1885 25.1207L20.1015 22.0338L17.0146 25.1207C15.3098 26.8256 15.3098 29.5897 17.0146 31.2946C18.7195 32.9995 21.4836 32.9995 23.1885 31.2946ZM9.38019 23.6602C7.67535 21.9553 7.67535 19.1912 9.38019 17.4863C11.0851 15.7815 13.8492 15.7815 15.5541 17.4863L18.641 20.5733L15.5541 23.6602C13.8492 25.3651 11.0851 25.3651 9.38019 23.6602Z" fill="#7F57F1"/>
</g>
<defs>
<clipPath id="clip0_2611_84701">
<rect width="170" height="41" fill="white" transform="translate(0 0.25)"/>
</clipPath>
</defs>
</svg>
