<svg width="171" height="33" viewBox="0 0 171 33" fill="none" xmlns="http://www.w3.org/2000/svg">
<g clip-path="url(#clip0_2611_84672)">
<path d="M67.5821 7.03394H64V23.1972H73.9164V20.0301H67.5821V7.03394Z" fill="#4845D2"/>
<path d="M74.2588 17.7149C74.2588 21.166 76.5741 23.4594 80.0688 23.4594C83.5417 23.4594 85.857 21.166 85.857 17.7149C85.857 14.2638 83.5417 11.9485 80.0688 11.9485C76.5741 11.9485 74.2588 14.2638 74.2588 17.7149ZM77.6443 17.693C77.6443 16.0549 78.6054 14.9628 80.0688 14.9628C81.5104 14.9628 82.4715 16.0549 82.4715 17.693C82.4715 19.3531 81.5104 20.4452 80.0688 20.4452C78.6054 20.4452 77.6443 19.3531 77.6443 17.693Z" fill="#4845D2"/>
<path d="M86.3982 17.5401C86.3982 20.8382 88.5388 23.0661 91.5748 23.0661C93.0383 23.0661 94.3051 22.5419 94.9385 21.6901V23.1972C94.9385 24.7043 93.9993 25.709 92.3393 25.709C90.854 25.709 89.8274 25.0101 89.7619 23.7651H86.3545C86.6603 26.7575 88.9756 28.7669 92.1427 28.7669C95.8777 28.7669 98.2367 26.3425 98.2367 22.4982V12.2761H95.2006L95.0259 13.39C94.4143 12.4945 93.1256 11.9048 91.6404 11.9048C88.5824 11.9048 86.3982 14.1982 86.3982 17.5401ZM89.8056 17.4527C89.8056 15.88 90.854 14.8316 92.1864 14.8316C93.7372 14.8316 94.873 15.8582 94.873 17.4527C94.873 19.0472 93.759 20.1393 92.2082 20.1393C90.8759 20.1393 89.8056 19.0472 89.8056 17.4527Z" fill="#4845D2"/>
<path d="M99.2168 17.7149C99.2168 21.166 101.532 23.4594 105.027 23.4594C108.5 23.4594 110.815 21.166 110.815 17.7149C110.815 14.2638 108.5 11.9485 105.027 11.9485C101.532 11.9485 99.2168 14.2638 99.2168 17.7149ZM102.602 17.693C102.602 16.0549 103.563 14.9628 105.027 14.9628C106.468 14.9628 107.429 16.0549 107.429 17.693C107.429 19.3531 106.468 20.4452 105.027 20.4452C103.563 20.4452 102.602 19.3531 102.602 17.693Z" fill="#4845D2"/>
<path d="M113.715 10.5724C114.763 10.5724 115.615 9.72054 115.615 8.65027C115.615 7.58 114.763 6.75 113.715 6.75C112.645 6.75 111.793 7.58 111.793 8.65027C111.793 9.72054 112.645 10.5724 113.715 10.5724ZM112.011 23.1972H115.397V12.2761H112.011V23.1972Z" fill="#4845D2"/>
<path d="M117.368 28.4392H120.688V22.105C121.321 22.935 122.763 23.5029 124.27 23.5029C127.524 23.5029 129.49 21.0129 129.403 17.5618C129.315 14.0452 127.284 11.9265 124.248 11.9265C122.697 11.9265 121.234 12.6036 120.622 13.6084L120.447 12.276H117.368V28.4392ZM120.753 17.7365C120.753 16.0984 121.845 15.0063 123.418 15.0063C125.012 15.0063 126.017 16.1202 126.017 17.7365C126.017 19.3529 125.012 20.4668 123.418 20.4668C121.845 20.4668 120.753 19.3747 120.753 17.7365Z" fill="#4845D2"/>
<path d="M129.761 19.746C129.848 21.9521 131.596 23.481 134.348 23.481C136.991 23.481 138.826 22.0831 138.826 19.8334C138.826 18.2171 137.865 17.1468 136.073 16.7099L134.13 16.2294C133.431 16.0547 132.994 15.8799 132.994 15.312C132.994 14.7441 133.452 14.3728 134.13 14.3728C134.894 14.3728 135.396 14.8752 135.375 15.6178H138.411C138.323 13.3462 136.598 11.9265 134.195 11.9265C131.771 11.9265 129.958 13.3681 129.958 15.5523C129.958 17.0157 130.766 18.2171 132.928 18.785L134.85 19.2873C135.418 19.4402 135.658 19.7023 135.658 20.0736C135.658 20.6197 135.156 20.9692 134.304 20.9692C133.321 20.9692 132.797 20.5105 132.797 19.746H129.761Z" fill="#4845D2"/>
<path d="M143.974 23.4811C145.307 23.4811 146.639 22.8695 147.316 21.974L147.535 23.1972H150.702V12.2761H147.338V17.9551C147.338 19.5932 146.858 20.4887 145.307 20.4887C144.105 20.4887 143.319 19.9427 143.319 17.9114V12.2761H139.955V19.1345C139.955 21.7338 141.397 23.4811 143.974 23.4811Z" fill="#4845D2"/>
<path d="M156.036 23.1972V17.2343C156.036 15.3995 157.019 14.8753 157.98 14.8753C159.05 14.8753 159.749 15.5306 159.749 16.8848V23.1972H163.069V17.2343C163.069 15.3777 164.03 14.8535 164.991 14.8535C166.061 14.8535 166.782 15.5087 166.782 16.8848V23.1972H170.059V16.0548C170.059 13.5648 168.748 11.9048 165.93 11.9048C164.358 11.9048 163.069 12.6692 162.501 13.8487C161.846 12.6692 160.71 11.9048 158.897 11.9048C157.696 11.9048 156.582 12.4508 155.927 13.3245L155.796 12.2761H152.65V23.1972H156.036Z" fill="#4845D2"/>
<path d="M0 16.75C0 7.91344 7.16344 0.75 16 0.75H37C45.8366 0.75 53 7.91344 53 16.75V32.75H16C7.16344 32.75 0 25.5866 0 16.75Z" fill="#4845D2"/>
<path d="M37 6.75H16C10.4772 6.75 6 11.2272 6 16.75C6 22.2728 10.4772 26.75 16 26.75H37C42.5228 26.75 47 22.2728 47 16.75C47 11.2272 42.5228 6.75 37 6.75Z" fill="#A5B4FC"/>
<path d="M16 21.75C18.7614 21.75 21 19.5114 21 16.75C21 13.9886 18.7614 11.75 16 11.75C13.2386 11.75 11 13.9886 11 16.75C11 19.5114 13.2386 21.75 16 21.75Z" fill="black"/>
<path d="M14 15.75C14.5523 15.75 15 15.3023 15 14.75C15 14.1977 14.5523 13.75 14 13.75C13.4477 13.75 13 14.1977 13 14.75C13 15.3023 13.4477 15.75 14 15.75Z" fill="white"/>
<path d="M38 21.75C40.7614 21.75 43 19.5114 43 16.75C43 13.9886 40.7614 11.75 38 11.75C35.2386 11.75 33 13.9886 33 16.75C33 19.5114 35.2386 21.75 38 21.75Z" fill="black"/>
<path d="M36 15.75C36.5523 15.75 37 15.3023 37 14.75C37 14.1977 36.5523 13.75 36 13.75C35.4477 13.75 35 14.1977 35 14.75C35 15.3023 35.4477 15.75 36 15.75Z" fill="white"/>
</g>
<defs>
<clipPath id="clip0_2611_84672">
<rect width="171" height="32" fill="white" transform="translate(0 0.75)"/>
</clipPath>
</defs>
</svg>
