<svg width="170" height="42" viewBox="0 0 170 42" fill="none" xmlns="http://www.w3.org/2000/svg">
<g clip-path="url(#clip0_2611_84689)">
<path d="M51.8604 28.388H63.8124V24.788H56.1084V11.228H51.8604V28.388Z" fill="#340E0E"/>
<path d="M70.8928 25.9879C69.1888 25.9879 68.3008 24.4999 68.3008 22.2679C68.3008 20.0359 69.1888 18.5239 70.8928 18.5239C72.5968 18.5239 73.5088 20.0359 73.5088 22.2679C73.5088 24.4999 72.5968 25.9879 70.8928 25.9879ZM70.9168 28.7719C74.8768 28.7719 77.4688 25.9639 77.4688 22.2679C77.4688 18.5719 74.8768 15.7639 70.9168 15.7639C66.9808 15.7639 64.3408 18.5719 64.3408 22.2679C64.3408 25.9639 66.9808 28.7719 70.9168 28.7719Z" fill="#340E0E"/>
<path d="M84.3236 32.636C86.1476 32.636 87.7556 32.228 88.8356 31.268C89.8196 30.38 90.4676 29.036 90.4676 27.188V16.1H86.7236V17.42H86.6756C85.9556 16.388 84.8516 15.74 83.2196 15.74C80.1716 15.74 78.0596 18.284 78.0596 21.884C78.0596 25.652 80.6276 27.716 83.3876 27.716C84.8756 27.716 85.8116 27.116 86.5316 26.3H86.6276V27.524C86.6276 29.012 85.9316 29.876 84.2756 29.876C82.9796 29.876 82.3316 29.324 82.1156 28.676H78.3236C78.7076 31.244 80.9396 32.636 84.3236 32.636ZM84.2996 24.812C82.8356 24.812 81.8756 23.612 81.8756 21.764C81.8756 19.892 82.8356 18.692 84.2996 18.692C85.9316 18.692 86.7956 20.084 86.7956 21.74C86.7956 23.468 86.0036 24.812 84.2996 24.812Z" fill="#340E0E"/>
<path d="M98.1663 25.9879C96.4623 25.9879 95.5743 24.4999 95.5743 22.2679C95.5743 20.0359 96.4623 18.5239 98.1663 18.5239C99.8703 18.5239 100.782 20.0359 100.782 22.2679C100.782 24.4999 99.8703 25.9879 98.1663 25.9879ZM98.1903 28.7719C102.15 28.7719 104.742 25.9639 104.742 22.2679C104.742 18.5719 102.15 15.7639 98.1903 15.7639C94.2543 15.7639 91.6143 18.5719 91.6143 22.2679C91.6143 25.9639 94.2543 28.7719 98.1903 28.7719Z" fill="#340E0E"/>
<path d="M105.884 28.388H109.796V16.1H105.884V28.388ZM105.884 14.396H109.796V11.228H105.884V14.396Z" fill="#340E0E"/>
<path d="M111.494 32.444H115.406V27.116H115.454C116.222 28.148 117.35 28.772 118.934 28.772C122.15 28.772 124.286 26.228 124.286 22.244C124.286 18.548 122.294 15.74 119.03 15.74C117.35 15.74 116.15 16.484 115.31 17.588H115.238V16.1H111.494V32.444ZM117.926 25.748C116.246 25.748 115.286 24.38 115.286 22.388C115.286 20.396 116.15 18.884 117.854 18.884C119.534 18.884 120.326 20.276 120.326 22.388C120.326 24.476 119.414 25.748 117.926 25.748Z" fill="#340E0E"/>
<path d="M130.655 28.772C133.871 28.772 136.247 27.38 136.247 24.692C136.247 21.548 133.703 20.996 131.543 20.636C129.983 20.348 128.591 20.228 128.591 19.364C128.591 18.596 129.335 18.236 130.295 18.236C131.375 18.236 132.119 18.572 132.263 19.676H135.863C135.671 17.252 133.799 15.74 130.319 15.74C127.415 15.74 125.015 17.084 125.015 19.676C125.015 22.556 127.295 23.132 129.431 23.492C131.063 23.78 132.551 23.9 132.551 25.004C132.551 25.796 131.807 26.228 130.631 26.228C129.335 26.228 128.519 25.628 128.375 24.404H124.679C124.799 27.116 127.055 28.772 130.655 28.772Z" fill="#340E0E"/>
<path d="M141.561 28.7481C143.265 28.7481 144.345 28.0761 145.233 26.8761H145.305V28.3881H149.049V16.1001H145.137V22.9641C145.137 24.4281 144.321 25.4361 142.977 25.4361C141.729 25.4361 141.129 24.6921 141.129 23.3481V16.1001H137.241V24.1641C137.241 26.9001 138.729 28.7481 141.561 28.7481Z" fill="#340E0E"/>
<path d="M150.75 28.388H154.662V21.5C154.662 20.036 155.382 19.004 156.606 19.004C157.782 19.004 158.334 19.772 158.334 21.092V28.388H162.246V21.5C162.246 20.036 162.942 19.004 164.19 19.004C165.366 19.004 165.918 19.772 165.918 21.092V28.388H169.83V20.396C169.83 17.636 168.438 15.74 165.654 15.74C164.07 15.74 162.75 16.412 161.79 17.9H161.742C161.118 16.58 159.894 15.74 158.286 15.74C156.51 15.74 155.334 16.58 154.566 17.852H154.494V16.1H150.75V28.388Z" fill="#340E0E"/>
<path fill-rule="evenodd" clip-rule="evenodd" d="M20.6836 40.3879C31.7293 40.3879 40.6836 31.4336 40.6836 20.3879C40.6836 9.34225 31.7293 0.387939 20.6836 0.387939C9.63788 0.387939 0.683594 9.34225 0.683594 20.3879C0.683594 31.4336 9.63788 40.3879 20.6836 40.3879ZM26.9229 9.70478C27.2266 8.62599 26.1797 7.98807 25.2236 8.66924L11.8767 18.1775C10.8398 18.9162 11.0029 20.3879 12.1217 20.3879H15.6363V20.3607H22.4861L16.9048 22.33L14.4443 31.0711C14.1406 32.1499 15.1874 32.7878 16.1436 32.1066L29.4905 22.5984C30.5274 21.8597 30.3642 20.3879 29.2455 20.3879H23.9157L26.9229 9.70478Z" fill="#F15757"/>
</g>
<defs>
<clipPath id="clip0_2611_84689">
<rect width="170" height="41" fill="white" transform="translate(0 0.25)"/>
</clipPath>
</defs>
</svg>
