<svg width="42" height="43" viewBox="0 0 42 43" fill="none" xmlns="http://www.w3.org/2000/svg">
<g filter="url(#filter0_d_1698_135211)">
<path d="M1 20C1 8.95431 9.95431 0 21 0C32.0457 0 41 8.95431 41 20C41 31.0457 32.0457 40 21 40C9.95431 40 1 31.0457 1 20Z" fill="#7F51F2" shape-rendering="crispEdges"/>
<path d="M24.5413 28.7499C25.3468 28.7499 25.9997 28.097 25.9997 27.2916C25.9997 26.4862 25.3468 25.8333 24.5413 25.8333C23.7359 25.8333 23.083 26.4862 23.083 27.2916C23.083 28.097 23.7359 28.7499 24.5413 28.7499Z" fill="white"/>
<path d="M17.8753 28.7499C18.6807 28.7499 19.3337 28.097 19.3337 27.2916C19.3337 26.4862 18.6807 25.8333 17.8753 25.8333C17.0699 25.8333 16.417 26.4862 16.417 27.2916C16.417 28.097 17.0699 28.7499 17.8753 28.7499Z" fill="white"/>
<path d="M15.0337 13.2834L14.867 15.3251C14.8337 15.7167 15.142 16.0417 15.5337 16.0417H28.292C28.642 16.0417 28.9337 15.7751 28.9587 15.4251C29.067 13.9501 27.942 12.7501 26.467 12.7501H16.2253C16.142 12.3834 15.9753 12.0334 15.717 11.7417C15.3003 11.3001 14.717 11.0417 14.117 11.0417H12.667C12.3253 11.0417 12.042 11.3251 12.042 11.6667C12.042 12.0084 12.3253 12.2917 12.667 12.2917H14.117C14.3753 12.2917 14.617 12.4001 14.792 12.5834C14.967 12.7751 15.0503 13.0251 15.0337 13.2834Z" fill="white"/>
<path d="M28.0914 17.2917H15.3081C14.9581 17.2917 14.6747 17.5584 14.6414 17.9001L14.3414 21.5251C14.2247 22.9501 15.3414 24.1667 16.7664 24.1667H26.0331C27.2831 24.1667 28.3831 23.1417 28.4747 21.8917L28.7497 18.0001C28.7831 17.6167 28.4831 17.2917 28.0914 17.2917Z" fill="white"/>
</g>
<defs>
<filter id="filter0_d_1698_135211" x="0" y="0" width="42" height="43" filterUnits="userSpaceOnUse" color-interpolation-filters="sRGB">
<feFlood flood-opacity="0" result="BackgroundImageFix"/>
<feColorMatrix in="SourceAlpha" type="matrix" values="0 0 0 0 0 0 0 0 0 0 0 0 0 0 0 0 0 0 127 0" result="hardAlpha"/>
<feOffset dy="2"/>
<feGaussianBlur stdDeviation="0.5"/>
<feComposite in2="hardAlpha" operator="out"/>
<feColorMatrix type="matrix" values="0 0 0 0 0.909804 0 0 0 0 0.960784 0 0 0 0 1 0 0 0 0.25 0"/>
<feBlend mode="normal" in2="BackgroundImageFix" result="effect1_dropShadow_1698_135211"/>
<feBlend mode="normal" in="SourceGraphic" in2="effect1_dropShadow_1698_135211" result="shape"/>
</filter>
</defs>
</svg>
