<svg width="42" height="43" viewBox="0 0 42 43" fill="none" xmlns="http://www.w3.org/2000/svg">
<g filter="url(#filter0_d_1698_135223)">
<path d="M1 20C1 8.95431 9.95431 0 21 0C32.0457 0 41 8.95431 41 20C41 31.0457 32.0457 40 21 40C9.95431 40 1 31.0457 1 20Z" fill="#ECFAEF" shape-rendering="crispEdges"/>
<path d="M26.975 15.5333C26.6167 13.725 25.275 12.9333 23.4083 12.9333H16.0917C13.8917 12.9333 12.425 14.0333 12.425 16.6V20.8917C12.425 22.7417 13.1833 23.825 14.4333 24.2917C14.6167 24.3583 14.8167 24.4167 15.025 24.45C15.3583 24.525 15.7167 24.5583 16.0917 24.5583H23.4167C25.6167 24.5583 27.0833 23.4583 27.0833 20.8917V16.6C27.0833 16.2083 27.05 15.8583 26.975 15.5333ZM15.6083 20C15.6083 20.3417 15.325 20.625 14.9833 20.625C14.6417 20.625 14.3583 20.3417 14.3583 20V17.5C14.3583 17.1583 14.6417 16.875 14.9833 16.875C15.325 16.875 15.6083 17.1583 15.6083 17.5V20ZM19.75 20.95C18.5333 20.95 17.55 19.9667 17.55 18.75C17.55 17.5333 18.5333 16.55 19.75 16.55C20.9667 16.55 21.95 17.5333 21.95 18.75C21.95 19.9667 20.9667 20.95 19.75 20.95ZM25.1333 20C25.1333 20.3417 24.85 20.625 24.5083 20.625C24.1667 20.625 23.8833 20.3417 23.8833 20V17.5C23.8833 17.1583 24.1667 16.875 24.5083 16.875C24.85 16.875 25.1333 17.1583 25.1333 17.5V20Z" fill="#41CB5D"/>
<path d="M29.5833 19.1V23.3917C29.5833 25.9583 28.1167 27.0667 25.9083 27.0667H18.5917C17.9667 27.0667 17.4083 26.975 16.925 26.7917C16.5333 26.65 16.1917 26.4417 15.9167 26.175C15.7667 26.0333 15.8833 25.8083 16.0917 25.8083H23.4083C26.4917 25.8083 28.325 23.975 28.325 20.9V16.6C28.325 16.4 28.55 16.275 28.6917 16.425C29.2583 17.025 29.5833 17.9 29.5833 19.1Z" fill="#41CB5D"/>
</g>
<defs>
<filter id="filter0_d_1698_135223" x="0" y="0" width="42" height="43" filterUnits="userSpaceOnUse" color-interpolation-filters="sRGB">
<feFlood flood-opacity="0" result="BackgroundImageFix"/>
<feColorMatrix in="SourceAlpha" type="matrix" values="0 0 0 0 0 0 0 0 0 0 0 0 0 0 0 0 0 0 127 0" result="hardAlpha"/>
<feOffset dy="2"/>
<feGaussianBlur stdDeviation="0.5"/>
<feComposite in2="hardAlpha" operator="out"/>
<feColorMatrix type="matrix" values="0 0 0 0 0.909804 0 0 0 0 0.960784 0 0 0 0 1 0 0 0 0.25 0"/>
<feBlend mode="normal" in2="BackgroundImageFix" result="effect1_dropShadow_1698_135223"/>
<feBlend mode="normal" in="SourceGraphic" in2="effect1_dropShadow_1698_135223" result="shape"/>
</filter>
</defs>
</svg>
