<svg width="26" height="27" viewBox="0 0 26 27" fill="none" xmlns="http://www.w3.org/2000/svg">
<g filter="url(#filter0_d_1904_87009)">
<path d="M1.7793 11.8305C1.7793 5.65207 6.78761 0.644043 12.9657 0.644043C19.1439 0.644043 24.1522 5.65207 24.1522 11.8305C24.1522 18.0089 19.1439 23.0169 12.9657 23.0169C6.78761 23.0169 1.7793 18.0089 1.7793 11.8305Z" fill="#EBF5FE"/>
<path d="M11.2646 15.6724C11.6567 16.1702 12.2725 16.4918 12.9651 16.4918C13.6576 16.4918 14.2735 16.1702 14.6655 15.6724C13.5367 15.8248 12.3934 15.8248 11.2646 15.6724Z" fill="#3B9FF9"/>
<path fill-rule="evenodd" clip-rule="evenodd" d="M16.1112 10.4321V10.76C16.1112 11.1544 16.2236 11.5389 16.4343 11.8668L16.9504 12.6701C17.4219 13.4035 17.062 14.4005 16.2419 14.6326C14.0968 15.2395 11.8341 15.2395 9.68892 14.6326C8.86888 14.4005 8.50896 13.4035 8.9804 12.6701L9.49658 11.8668C9.70724 11.5389 9.81966 11.1544 9.81966 10.76V10.4321C9.81966 8.63042 11.228 7.16919 12.9654 7.16919C14.7027 7.16919 16.1112 8.63042 16.1112 10.4321ZM12.0667 10.7817C11.8805 10.7817 11.7296 10.6251 11.7296 10.4321C11.7296 10.2392 11.8805 10.0826 12.0667 10.0826H13.8642C14.0005 10.0826 14.1234 10.1679 14.1756 10.2986C14.2277 10.4286 14.1989 10.579 14.1026 10.6789L12.8803 11.9472H13.8642C14.0504 11.9472 14.2013 12.1031 14.2013 12.2968C14.2013 12.4898 14.0504 12.6464 13.8642 12.6464H12.0667C11.9303 12.6464 11.8074 12.5611 11.7553 12.4303C11.7031 12.2996 11.7319 12.1493 11.8283 12.0493L13.0505 10.7817H12.0667Z" fill="#3B9FF9"/>
</g>
<defs>
<filter id="filter0_d_1904_87009" x="0.779297" y="0.644043" width="24.373" height="25.3728" filterUnits="userSpaceOnUse" color-interpolation-filters="sRGB">
<feFlood flood-opacity="0" result="BackgroundImageFix"/>
<feColorMatrix in="SourceAlpha" type="matrix" values="0 0 0 0 0 0 0 0 0 0 0 0 0 0 0 0 0 0 127 0" result="hardAlpha"/>
<feOffset dy="2"/>
<feGaussianBlur stdDeviation="0.5"/>
<feComposite in2="hardAlpha" operator="out"/>
<feColorMatrix type="matrix" values="0 0 0 0 0.909804 0 0 0 0 0.960784 0 0 0 0 1 0 0 0 0.25 0"/>
<feBlend mode="normal" in2="BackgroundImageFix" result="effect1_dropShadow_1904_87009"/>
<feBlend mode="normal" in="SourceGraphic" in2="effect1_dropShadow_1904_87009" result="shape"/>
</filter>
</defs>
</svg>
