<svg width="26" height="26" viewBox="0 0 26 26" fill="none" xmlns="http://www.w3.org/2000/svg">
<g filter="url(#filter0_d_1904_86994)">
<path d="M1.7793 11.3051C1.7793 5.12668 6.78761 0.118652 12.9657 0.118652C19.1439 0.118652 24.1522 5.12668 24.1522 11.3051C24.1522 17.4835 19.1439 22.4915 12.9657 22.4915C6.78761 22.4915 1.7793 17.4835 1.7793 11.3051Z" fill="#E6FFF7"/>
<path d="M16.6948 8.85798C17.4028 8.85798 17.9767 8.28398 17.9767 7.57643C17.9767 6.86819 17.4028 6.29419 16.6948 6.29419C15.987 6.29419 15.4131 6.86819 15.4131 7.57643C15.4131 8.28398 15.987 8.85798 16.6948 8.85798Z" fill="#00B27C"/>
<path d="M16.2471 9.51032C15.5153 9.35231 14.9187 8.75524 14.7602 8.02393C14.6996 7.73937 14.6949 7.46461 14.7462 7.20312C14.8068 6.91437 14.5924 6.6438 14.2941 6.6438H10.6352C9.34873 6.6438 8.30469 7.68833 8.30469 8.97477V12.2139C8.30469 13.5004 9.34873 14.5442 10.6352 14.5442H11.3343C11.4649 14.5442 11.6327 14.6281 11.7073 14.7309L12.4064 15.6587C12.714 16.0684 13.2174 16.0684 13.5251 15.6587L14.2242 14.7309C14.3127 14.6141 14.4479 14.5442 14.5971 14.5442H15.3009C16.5873 14.5442 17.6267 13.5053 17.6267 12.2188V9.97666C17.6267 9.68301 17.3564 9.46838 17.0674 9.52431C16.8064 9.57115 16.5314 9.57115 16.2471 9.51032ZM11.1013 11.305C10.8403 11.305 10.6352 11.0953 10.6352 10.8387C10.6352 10.5828 10.8403 10.3731 11.1013 10.3731C11.3577 10.3731 11.5674 10.5828 11.5674 10.8387C11.5674 11.0953 11.3623 11.305 11.1013 11.305ZM12.9657 11.305C12.7047 11.305 12.4996 11.0953 12.4996 10.8387C12.4996 10.5828 12.7047 10.3731 12.9657 10.3731C13.222 10.3731 13.4318 10.5828 13.4318 10.8387C13.4318 11.0953 13.2267 11.305 12.9657 11.305ZM14.8301 11.305C14.5691 11.305 14.364 11.0953 14.364 10.8387C14.364 10.5828 14.5691 10.3731 14.8301 10.3731C15.0865 10.3731 15.2962 10.5828 15.2962 10.8387C15.2962 11.0953 15.0912 11.305 14.8301 11.305Z" fill="#00B27C"/>
</g>
<defs>
<filter id="filter0_d_1904_86994" x="0.779297" y="0.118652" width="24.373" height="25.3728" filterUnits="userSpaceOnUse" color-interpolation-filters="sRGB">
<feFlood flood-opacity="0" result="BackgroundImageFix"/>
<feColorMatrix in="SourceAlpha" type="matrix" values="0 0 0 0 0 0 0 0 0 0 0 0 0 0 0 0 0 0 127 0" result="hardAlpha"/>
<feOffset dy="2"/>
<feGaussianBlur stdDeviation="0.5"/>
<feComposite in2="hardAlpha" operator="out"/>
<feColorMatrix type="matrix" values="0 0 0 0 0.909804 0 0 0 0 0.960784 0 0 0 0 1 0 0 0 0.25 0"/>
<feBlend mode="normal" in2="BackgroundImageFix" result="effect1_dropShadow_1904_86994"/>
<feBlend mode="normal" in="SourceGraphic" in2="effect1_dropShadow_1904_86994" result="shape"/>
</filter>
</defs>
</svg>
