<svg width="26" height="26" viewBox="0 0 26 26" fill="none" xmlns="http://www.w3.org/2000/svg">
<g filter="url(#filter0_d_1904_86984)">
<path d="M1.7793 11.5424C1.7793 5.36427 6.78761 0.355957 12.9657 0.355957C19.1439 0.355957 24.1522 5.36427 24.1522 11.5424C24.1522 17.7205 19.1439 22.7288 12.9657 22.7288C6.78761 22.7288 1.7793 17.7205 1.7793 11.5424Z" fill="#F2EEFE"/>
<path d="M14.9466 16.4366C15.397 16.4366 15.7622 16.0713 15.7622 15.6209C15.7622 15.1704 15.397 14.8052 14.9466 14.8052C14.496 14.8052 14.1309 15.1704 14.1309 15.6209C14.1309 16.0713 14.496 16.4366 14.9466 16.4366Z" fill="#7F51F2"/>
<path d="M11.218 16.4366C11.6685 16.4366 12.0337 16.0713 12.0337 15.6209C12.0337 15.1704 11.6685 14.8052 11.218 14.8052C10.7675 14.8052 10.4023 15.1704 10.4023 15.6209C10.4023 16.0713 10.7675 16.4366 11.218 16.4366Z" fill="#7F51F2"/>
<path d="M9.62836 7.78553L9.53516 8.92746C9.51649 9.14657 9.68898 9.32835 9.90802 9.32835H17.0441C17.2398 9.32835 17.4029 9.17915 17.4169 8.98338C17.4775 8.15838 16.8483 7.4872 16.0233 7.4872H10.2949C10.2483 7.28214 10.1551 7.08637 10.0106 6.92326C9.77756 6.67618 9.45126 6.53174 9.11567 6.53174H8.30465C8.11358 6.53174 7.95508 6.69017 7.95508 6.88131C7.95508 7.07239 8.11358 7.23089 8.30465 7.23089H9.11567C9.26019 7.23089 9.39533 7.29144 9.49321 7.394C9.5911 7.50118 9.63773 7.64101 9.62836 7.78553Z" fill="#7F51F2"/>
<path d="M16.9327 10.0276H9.78264C9.58688 10.0276 9.42845 10.1767 9.40979 10.3678L9.24199 12.3953C9.17676 13.1924 9.80131 13.8729 10.5983 13.8729H15.7814C16.4805 13.8729 17.0958 13.2996 17.1471 12.6005L17.3009 10.4237C17.3195 10.2094 17.1517 10.0276 16.9327 10.0276Z" fill="#7F51F2"/>
</g>
<defs>
<filter id="filter0_d_1904_86984" x="0.779297" y="0.355957" width="24.373" height="25.3728" filterUnits="userSpaceOnUse" color-interpolation-filters="sRGB">
<feFlood flood-opacity="0" result="BackgroundImageFix"/>
<feColorMatrix in="SourceAlpha" type="matrix" values="0 0 0 0 0 0 0 0 0 0 0 0 0 0 0 0 0 0 127 0" result="hardAlpha"/>
<feOffset dy="2"/>
<feGaussianBlur stdDeviation="0.5"/>
<feComposite in2="hardAlpha" operator="out"/>
<feColorMatrix type="matrix" values="0 0 0 0 0.909804 0 0 0 0 0.960784 0 0 0 0 1 0 0 0 0.25 0"/>
<feBlend mode="normal" in2="BackgroundImageFix" result="effect1_dropShadow_1904_86984"/>
<feBlend mode="normal" in="SourceGraphic" in2="effect1_dropShadow_1904_86984" result="shape"/>
</filter>
</defs>
</svg>
