<svg width="26" height="27" viewBox="0 0 26 27" fill="none" xmlns="http://www.w3.org/2000/svg">
<g filter="url(#filter0_d_1904_87002)">
<path d="M1.7793 12.0678C1.7793 5.88938 6.78761 0.881348 12.9657 0.881348C19.1439 0.881348 24.1522 5.88938 24.1522 12.0678C24.1522 18.2462 19.1439 23.2542 12.9657 23.2542C6.78761 23.2542 1.7793 18.2462 1.7793 12.0678Z" fill="#FFF2EC"/>
<path d="M12.9657 7.40649C10.3928 7.40649 8.30469 9.49487 8.30469 12.0677C8.30469 14.6406 10.3928 16.729 12.9657 16.729C15.5386 16.729 17.6267 14.6406 17.6267 12.0677C17.6267 9.49487 15.5386 7.40649 12.9657 7.40649ZM15.3848 13.9044C15.3661 13.9464 15.3428 13.9834 15.3102 14.0163L14.5225 14.8035C14.4525 14.8734 14.364 14.9063 14.2755 14.9063C14.1869 14.9063 14.0984 14.8734 14.0284 14.8035C13.8932 14.6686 13.8932 14.4449 14.0284 14.3099L14.2195 14.1184H11.614C11.0081 14.1184 10.5187 13.6248 10.5187 13.0235V12.1985C10.5187 12.0069 10.6771 11.8489 10.8683 11.8489C11.0593 11.8489 11.2178 12.0069 11.2178 12.1985V13.0235C11.2178 13.2423 11.3949 13.4192 11.614 13.4192H14.2195L14.0284 13.2283C13.8932 13.0934 13.8932 12.8697 14.0284 12.734C14.1636 12.5991 14.3873 12.5991 14.5225 12.734L15.3102 13.522C15.3428 13.5548 15.3661 13.5919 15.3848 13.6339C15.4221 13.7226 15.4221 13.8205 15.3848 13.9044ZM15.4128 11.937C15.4128 12.1286 15.2543 12.2866 15.0632 12.2866C14.872 12.2866 14.7136 12.1286 14.7136 11.937V11.112C14.7136 10.8932 14.5364 10.7163 14.3174 10.7163H11.7119L11.903 10.9023C12.0382 11.0379 12.0382 11.2616 11.903 11.3966C11.8331 11.4665 11.7445 11.4993 11.6559 11.4993C11.5674 11.4993 11.4788 11.4665 11.4089 11.3966L10.6212 10.6086C10.5886 10.5765 10.5653 10.5387 10.5467 10.4968C10.5093 10.4129 10.5093 10.315 10.5467 10.2311C10.5653 10.1891 10.5886 10.1472 10.6212 10.115L11.4089 9.32707C11.5441 9.19214 11.7678 9.19214 11.903 9.32707C12.0382 9.46201 12.0382 9.68574 11.903 9.82137L11.7119 10.0122H14.3174C14.9234 10.0122 15.4128 10.5065 15.4128 11.1078V11.937Z" fill="#FF7F3C"/>
</g>
<defs>
<filter id="filter0_d_1904_87002" x="0.779297" y="0.881348" width="24.373" height="25.3728" filterUnits="userSpaceOnUse" color-interpolation-filters="sRGB">
<feFlood flood-opacity="0" result="BackgroundImageFix"/>
<feColorMatrix in="SourceAlpha" type="matrix" values="0 0 0 0 0 0 0 0 0 0 0 0 0 0 0 0 0 0 127 0" result="hardAlpha"/>
<feOffset dy="2"/>
<feGaussianBlur stdDeviation="0.5"/>
<feComposite in2="hardAlpha" operator="out"/>
<feColorMatrix type="matrix" values="0 0 0 0 0.909804 0 0 0 0 0.960784 0 0 0 0 1 0 0 0 0.25 0"/>
<feBlend mode="normal" in2="BackgroundImageFix" result="effect1_dropShadow_1904_87002"/>
<feBlend mode="normal" in="SourceGraphic" in2="effect1_dropShadow_1904_87002" result="shape"/>
</filter>
</defs>
</svg>
