<svg width="152" height="262" viewBox="0 0 152 262" fill="none" xmlns="http://www.w3.org/2000/svg">
<g filter="url(#filter0_d_1729_13670)">
<path d="M8 28C8 14.7452 18.7452 4 32 4H120C133.255 4 144 14.7452 144 28V226C144 239.255 133.255 250 120 250H32C18.7452 250 8 239.255 8 226V28Z" fill="white"/>
<path d="M32.0002 19.2H48.0002C50.6502 19.2 52.8002 21.35 52.8002 24V40C52.8002 42.65 50.6502 44.8 48.0002 44.8H32.0002C29.3502 44.8 27.2002 42.65 27.2002 40V24C27.2002 21.35 29.3502 19.2 32.0002 19.2Z" fill="#873EFF"/>
<path d="M32.4251 34.5251C33.0201 34.5251 33.4951 34.2301 33.8551 33.5451L34.6551 32.0351V33.3151C34.6551 34.0701 35.1401 34.5201 35.8851 34.5201C36.4701 34.5201 36.9051 34.2601 37.3201 33.5401L39.1601 30.4001C39.5651 29.7101 39.2751 29.1951 38.3901 29.1951C37.9151 29.1951 37.6051 29.3501 37.3251 29.8751L36.0551 32.2801V30.1501C36.0551 29.5151 35.7551 29.2001 35.1951 29.2001C34.7551 29.2001 34.4051 29.3951 34.1301 29.9251L32.9501 32.2901V30.1701C32.9501 29.4901 32.6701 29.2001 31.9951 29.2001H30.6151C30.0951 29.2001 29.8301 29.4451 29.8301 29.8951C29.8301 30.3451 30.1101 30.6051 30.6151 30.6051H31.1801V33.3101C31.1801 34.0751 31.6851 34.5251 32.4251 34.5251Z" fill="white"/>
<path d="M41.8552 29.2C40.3502 29.2 39.2002 30.335 39.2002 31.865C39.2002 33.395 40.3602 34.525 41.8552 34.525C43.3502 34.525 44.4952 33.39 44.5002 31.865C44.5002 30.335 43.3502 29.2 41.8552 29.2ZM41.8552 32.89C41.2902 32.89 40.9002 32.46 40.9002 31.87C40.9002 31.275 41.2902 30.84 41.8552 30.84C42.4202 30.84 42.8102 31.275 42.8102 31.87C42.8102 32.46 42.4252 32.89 41.8552 32.89Z" fill="white"/>
<path d="M47.5249 29.2C46.0299 29.2 44.8799 30.335 44.8799 31.865C44.8799 33.395 46.0299 34.525 47.5249 34.525C49.0199 34.525 50.1699 33.39 50.1699 31.865C50.1699 30.34 49.0199 29.2 47.5249 29.2ZM47.5249 32.89C46.9549 32.89 46.5799 32.46 46.5799 31.87C46.5799 31.275 46.9599 30.84 47.5249 30.84C48.0899 30.84 48.4799 31.275 48.4799 31.87C48.4749 32.46 48.0899 32.89 47.5249 32.89Z" fill="white"/>
<g clip-path="url(#clip0_1729_13670)">
<rect x="80" y="20" width="48" height="24" rx="12" fill="#7F51F2"/>
<circle cx="116" cy="32" r="8" fill="white"/>
</g>
<path d="M27 54H39.3411C48.1967 54 52.2145 60.1112 52.2145 65.4047C52.2145 70.6981 48.1979 76.8093 39.3411 76.8093H35.4696V86H27V54Z" fill="black"/>
<path d="M39.467 72.1181C38.3935 72.1181 37.2998 71.8221 36.3448 71.3668C36.2654 71.3668 36.1859 71.3266 36.1266 71.2877C35.9878 71.1096 35.7683 71.0895 35.6094 70.9315C35.1515 70.6355 34.5359 69.8239 34.5157 69.7449C34.4766 69.6458 34.3164 69.4288 34.4766 69.3886C34.5359 69.3686 34.5561 69.3297 34.6153 69.2895C34.5952 69.2695 34.5762 69.2695 34.5952 69.2494C34.6343 69.2293 34.6948 69.1904 34.7339 69.1904C34.773 69.2105 34.773 69.1904 34.7932 69.1704C34.7339 69.1704 34.6936 69.1904 34.7137 69.1114C34.6544 69.1503 34.575 69.1114 34.6734 69.0713H34.6532C34.633 69.0913 34.5939 69.0913 34.5737 69.0713C34.5535 69.0512 34.5333 69.0512 34.5333 69.0913C34.4942 69.1315 34.4135 69.1503 34.3744 69.1904C34.3946 69.1904 34.4135 69.1904 34.4135 69.2105L34.2344 69.3096C33.9367 68.8944 33.6781 68.143 33.6377 67.6288C33.6377 67.5096 33.837 67.4506 33.7966 67.3716C33.8559 67.2136 33.9758 67.0555 34.1549 67.0354C34.0956 67.1546 34.4526 67.1546 34.2937 67.0154C34.3138 66.9953 34.2937 66.9953 34.2735 66.9953C34.5119 66.8573 34.5523 66.5212 34.5523 66.5212C34.6116 66.5801 34.691 66.56 34.691 66.481C34.8298 66.4609 35.0291 66.4221 35.2877 66.4421C35.1288 66.4221 35.2284 66.5613 35.3268 66.481C35.2877 66.4609 35.2675 66.461 35.2877 66.4421C35.6851 66.4421 35.4063 66.8172 35.8844 67.4707C36.7788 68.8154 38.7278 69.2105 40.239 69.3497C41.0741 69.3886 41.889 69.0136 42.3268 68.3212C42.5261 67.8859 41.8499 67.6488 41.6115 67.3716C39.6234 66.0859 37.1774 65.5716 35.3672 64.0501C35.3672 63.872 34.9295 63.5157 35.0884 63.4179C35.1477 63.3978 35.2473 63.4179 35.2675 63.3388C35.1489 63.2799 35.0089 63.4379 34.9496 63.2398C34.9887 63.2197 35.0089 63.1996 35.0291 63.2197C35.1086 63.2197 35.1679 63.1206 35.2473 63.1607C35.2272 63.1607 35.2082 63.1407 35.1679 63.1206L35.3066 63.0817C35.3659 63.0616 35.3659 63.1407 35.4265 63.0817C35.3861 63.0817 35.347 63.0616 35.3066 63.0416C35.3457 63.0416 35.3861 63.0215 35.4265 63.0215C35.3268 63.0215 35.2082 62.9425 35.3672 62.9224C35.3079 62.9224 35.2877 62.8835 35.2473 62.8634C35.1881 62.9023 35.1086 62.9425 35.0291 62.9425C34.9093 63.3376 34.8298 62.3893 34.7907 62.171C34.8702 62.2099 34.8702 62.1911 34.8109 62.2501C34.8702 62.2501 34.9105 62.23 34.9496 62.2889C34.9295 62.2501 34.9105 62.2099 34.9496 62.1698C35.0291 62.1899 35.1489 61.9327 35.0089 62.0707C34.9093 62.0318 35.1275 61.9515 35.0291 61.8926C35.0089 61.8524 34.9887 61.8725 34.9698 61.8926C34.7907 62.0707 34.7516 61.8524 34.7907 61.6944C34.8109 61.5752 34.6519 61.2202 34.9105 61.2993C34.5725 60.943 35.7254 60.1327 36.0635 59.9157C36.0837 59.8956 36.1228 59.8756 36.1026 59.9157C36.1619 59.9546 36.2225 59.9546 36.2616 59.9358C36.341 59.9358 36.2616 59.8166 36.2414 59.8768C36.2414 59.9358 36.1821 59.8768 36.1417 59.8567C36.1619 59.8567 36.1808 59.8367 36.201 59.8367C36.3398 59.7576 36.5984 59.5595 36.7775 59.5795C36.8166 59.5996 36.8368 59.6184 36.8772 59.5795C36.857 59.5595 36.8974 59.5394 36.9365 59.5206C36.8969 59.4946 36.9037 59.488 36.9567 59.5005C36.8772 59.4215 37.0954 59.4415 37.0954 59.4804C37.0954 59.5394 37.1749 59.4804 37.1951 59.5394C37.3149 59.5983 37.2153 59.5005 37.1951 59.4604C37.1749 59.4014 37.156 59.4014 37.1156 59.3813C37.2153 59.3425 37.3149 59.2822 37.4133 59.2822C37.4524 59.2822 37.4726 59.3023 37.4524 59.2622C37.4915 59.2032 37.5723 59.2032 37.6315 59.1831C37.7703 59.1831 37.9293 59.005 38.0491 59.1041C38.0882 59.1831 38.1084 59.1242 38.1488 59.0652C38.208 59.0853 38.2282 59.1242 38.2484 59.1643C38.3077 59.1443 38.2686 59.1242 38.2282 59.1054C38.2282 59.0464 38.208 59.0464 38.1689 59.0063C38.2686 59.0063 38.3872 58.9273 38.4868 58.9473C38.5272 59.0063 38.6861 58.9875 38.6067 58.9072C39.2034 58.7692 39.8795 58.6902 40.5557 58.6902C41.6897 58.6902 42.8225 58.9273 43.5782 59.5406C43.6185 59.5406 43.6375 59.5206 43.6778 59.5206C43.698 59.4817 44.1748 59.8367 44.3136 59.9947C44.3338 60.0148 44.4133 60.0537 44.354 60.0537C44.3136 60.0537 44.2745 60.0537 44.2947 60.1126C44.2745 60.1515 44.0765 60.2707 44.195 60.2506C44.1547 60.3296 44.354 60.2506 44.3742 60.2105C44.2152 60.2305 44.4335 60.0123 44.354 60.1314C44.3742 60.1114 44.3931 60.1114 44.4133 60.1114C44.3931 60.1503 44.4133 60.1503 44.4726 60.1503C44.5318 60.2293 44.6113 60.3284 44.5318 60.4275C44.571 60.4275 44.5911 60.3873 44.5911 60.4475C44.6315 60.4475 44.6706 60.4087 44.6706 60.4676C44.6315 60.5065 44.6504 60.5065 44.6908 60.4877C44.7169 60.527 44.7101 60.5533 44.6706 60.5667C44.6908 60.4676 44.5911 60.5667 44.5508 60.5667C44.6302 60.7047 44.7892 60.5078 44.7501 60.7047C44.7501 60.7837 44.7299 60.7837 44.6706 60.7837C44.6706 60.8427 44.6504 60.8427 44.6113 60.8427C44.5318 60.8427 44.4915 60.9016 44.4322 60.9418C44.4726 60.9217 44.5117 60.9217 44.552 60.9029C44.4927 61.002 44.4133 61.002 44.3338 61.081C44.3729 61.1211 44.3136 61.14 44.3338 61.1801C44.2745 61.16 44.2341 61.2792 44.2543 61.1801C44.195 61.16 44.1547 61.239 44.0954 61.239C44.0752 61.2591 43.8771 61.3181 43.9566 61.3181C43.8771 61.357 44.0361 61.3971 43.8973 61.4172C43.9175 61.4372 43.9566 61.4573 43.9768 61.4372C43.9566 61.5564 44.0159 61.5163 44.0966 61.4962C44.1168 61.4761 44.1559 61.4761 44.1168 61.4172C44.1559 61.3582 44.1168 61.3783 44.0575 61.3971C44.0575 61.377 44.0966 61.357 44.1168 61.3381C44.1034 61.3248 44.1101 61.3114 44.137 61.298C44.137 61.357 44.1761 61.3181 44.2165 61.3181C44.2367 61.377 44.2165 61.3971 44.1572 61.4372C44.277 61.4962 44.1181 61.5163 44.137 61.5953H44.1761C44.1761 61.6154 44.1559 61.6154 44.1761 61.6342C44.1559 61.6542 44.1761 61.6743 44.2165 61.6542C44.1963 61.6154 44.2165 61.5953 44.2556 61.5953C44.2354 61.5953 44.2354 61.5752 44.2556 61.5551C44.2758 61.5351 44.2758 61.5351 44.2947 61.5351C44.2947 61.5351 44.2947 61.515 44.3149 61.4949C44.2947 61.515 44.2758 61.515 44.2556 61.515C44.2947 61.4749 44.2758 61.4749 44.2556 61.436C44.3351 61.3971 44.4347 61.357 44.5142 61.4159C44.5142 61.436 44.494 61.4561 44.494 61.4561C44.5142 61.4561 44.5533 61.4561 44.5331 61.4159C44.5924 61.4159 44.5924 61.3369 44.6328 61.377H44.6921C44.6921 61.3181 44.7312 61.2779 44.6921 61.239C44.6719 61.239 44.6719 61.2591 44.6719 61.2591C44.6517 61.3582 44.5129 61.3381 44.4726 61.298C44.4927 61.298 44.5117 61.298 44.4927 61.2779C44.4524 61.298 44.3931 61.239 44.4335 61.1989C44.4927 61.1199 44.5533 61.1989 44.6126 61.219C44.6328 61.239 44.6517 61.219 44.6517 61.219C44.6517 61.1989 44.6719 61.1801 44.6908 61.1801C44.6517 61.16 44.6315 61.1211 44.6315 61.081C44.6113 61.0421 44.5722 60.9819 44.6315 60.9618C44.6576 60.9618 44.6706 60.9485 44.6706 60.9217C44.7904 60.8816 44.8699 61.1387 44.8296 61.2378C44.8296 61.3168 44.7703 61.4159 44.7703 61.4949C44.8094 61.5539 44.711 61.5539 44.711 61.594C44.9292 61.574 44.6315 61.7521 44.7703 61.6931C44.7501 61.7333 44.6706 61.7132 44.6706 61.7722C44.6908 61.8311 44.7299 61.7922 44.7501 61.7521C44.909 61.791 44.7501 62.0682 44.6908 62.1472C44.8296 62.1472 44.7703 62.3053 44.7501 62.3843C44.6908 62.4232 44.7299 62.4834 44.7097 62.5423C44.6302 62.7004 44.412 62.6013 44.2922 62.5223C44.1332 62.4232 44.1534 62.1861 43.9541 62.166C43.7548 62.087 43.5365 62.1071 43.3776 62.008C43.2186 61.949 43.0799 62.0669 42.9399 62.0469C42.82 62.0669 42.8011 62.166 42.6813 62.0669C41.4488 61.4347 40.0965 61.4147 38.7833 61.6317C38.3455 61.8299 37.769 61.7696 37.4512 62.166C37.5508 62.2651 37.8094 62.383 37.9482 62.5022C40.1558 63.4706 43.616 64.3009 44.0928 66.8925C44.1925 67.8019 44.3906 68.7113 44.0134 69.6019C43.9541 69.721 43.9137 70.155 43.7157 70.0171C43.8153 70.1952 43.7157 70.0961 43.616 70.076C43.616 70.135 43.6753 70.214 43.7157 70.155C43.756 70.2541 43.6955 70.1952 43.6362 70.1751C43.5769 70.2341 43.6362 70.214 43.6753 70.2341C43.5958 70.2541 43.6362 70.3131 43.6955 70.273C43.4772 70.569 43.1783 70.8663 42.8402 70.9842C42.9197 71.0431 42.7405 71.0833 42.6813 71.1422C42.6421 71.1422 42.622 71.1033 42.5816 71.0833C42.6018 71.1222 42.6409 71.1623 42.5816 71.1222C42.5816 71.2413 42.3432 71.0833 42.5223 71.2213C42.4832 71.2213 42.4428 71.1623 42.4025 71.2012C42.3634 71.2413 42.4226 71.2413 42.4416 71.2802C42.2826 71.3793 42.3217 71.3592 42.2032 71.2601C42.1628 71.2401 42.1628 71.2802 42.1439 71.2401C42.1048 71.1999 42.0644 71.2789 42.024 71.2401C41.9849 71.22 41.9647 71.22 41.9647 71.2601C41.8651 71.2213 41.9054 71.3392 41.9445 71.3793C41.9445 71.3203 42.024 71.3203 42.0644 71.3392C42.0051 71.3592 42.1237 71.3981 42.1439 71.3981C42.2032 71.3981 42.2233 71.3392 42.2637 71.378C42.1842 71.4169 42.0644 71.5361 42.0253 71.378C42.0253 71.3981 42.0051 71.3981 41.9862 71.4169C42.1249 71.496 41.9269 71.5361 41.8663 71.595C41.8272 71.6151 41.807 71.595 41.7869 71.575C41.7465 71.516 41.6872 71.5348 41.6481 71.5549C41.6077 71.5951 41.6481 71.6139 41.6683 71.654C41.6279 71.6929 41.5686 71.713 41.5093 71.6929C40.8534 71.9902 40.157 72.1081 39.4607 72.1081L39.467 72.1181ZM33.9783 67.63C33.9581 67.5911 33.8988 67.6099 33.8988 67.6501C33.919 67.6501 33.9581 67.6501 33.9783 67.63ZM34.1171 68.0452C34.078 68.0452 34.0174 68.0251 33.9783 68.0853C34.0187 68.0653 34.1171 68.0653 34.1171 68.0452ZM34.078 67.768C34.0388 67.768 33.9392 67.847 34.0187 67.8671C34.078 67.8671 34.1372 67.7881 34.078 67.768ZM34.1776 67.926C34.0981 67.906 34.0981 67.9461 34.0981 68.0251C34.1776 68.0051 34.218 68.0051 34.1776 67.926ZM34.6948 67.8671C34.7743 67.8269 34.8336 67.827 34.7743 67.768C34.7945 67.7291 34.8538 67.689 34.7743 67.6689C34.8134 67.6689 34.8134 67.6488 34.8134 67.6288C34.8336 67.6087 34.9332 67.5899 34.8538 67.5497C34.8134 67.5497 34.7743 67.5698 34.7339 67.5497C34.6746 67.5297 34.6746 67.5899 34.6141 67.5899C34.6734 67.689 34.5346 67.6099 34.575 67.6689C34.4753 67.6288 34.4753 67.7881 34.3958 67.7279C34.3958 67.7078 34.3757 67.7078 34.3567 67.7279C34.3176 67.7667 34.3769 67.7868 34.3366 67.8069C34.3164 67.847 34.2369 67.8658 34.2773 67.8069C34.2571 67.8069 34.2571 67.7868 34.2773 67.7667C34.218 67.7667 34.0981 67.7667 34.1183 67.8658C34.1385 67.9449 34.218 67.8658 34.2571 67.8658H34.3567C34.3958 67.8458 34.416 67.7868 34.4564 67.8069C34.5157 67.7667 34.5561 67.8069 34.5952 67.827C34.5817 67.8663 34.5884 67.8859 34.6153 67.8859C34.6355 67.827 34.6746 67.8658 34.6948 67.8658V67.8671ZM34.1776 67.7291H34.1183C34.1385 67.768 34.1587 67.768 34.1776 67.7291ZM34.3164 67.472C34.2571 67.4519 34.2167 67.472 34.1965 67.5121C34.2356 67.5121 34.276 67.492 34.3164 67.472ZM34.4955 68.0853C34.5346 68.0853 34.575 68.0853 34.5952 68.0264C34.6343 67.9674 34.715 67.9674 34.7743 67.9474C34.715 67.9474 34.6355 67.9674 34.6153 67.8884C34.5762 67.9085 34.5359 67.9674 34.4955 67.9875C34.4564 67.9875 34.4564 68.0076 34.4753 68.0465H34.3757C34.435 68.0866 34.276 68.0465 34.2962 68.1255C34.3555 68.0866 34.435 68.0866 34.4955 68.0866V68.0853ZM34.4564 67.3929C34.4362 67.3729 34.3971 67.3729 34.3567 67.3929C34.3958 67.413 34.4362 67.4519 34.4564 67.3929ZM34.5762 67.2349C34.6355 67.1759 34.5964 67.1358 34.5359 67.1759C34.4968 67.2349 34.4564 67.196 34.3971 67.2148C34.4173 67.255 34.3769 67.255 34.3769 67.255C34.3176 67.3139 34.4564 67.334 34.4362 67.2951C34.4753 67.255 34.5359 67.275 34.575 67.2361L34.5762 67.2349ZM34.6557 68.4805C34.4766 68.4416 34.715 68.3224 34.3769 68.4215C34.3769 68.4474 34.39 68.4541 34.416 68.4416C34.4564 68.4416 34.4955 68.4416 34.5157 68.4805C34.5157 68.5394 34.575 68.5206 34.5952 68.5206C34.6153 68.5206 34.6343 68.5005 34.6544 68.4805H34.6557ZM34.3971 67.1358H34.4564C34.4362 67.0969 34.416 67.0969 34.3971 67.1358ZM34.6355 69.509C34.6746 69.489 34.7554 69.489 34.7554 69.41C34.6557 69.41 34.5561 69.4689 34.4766 69.5291C34.5359 69.5693 34.5964 69.5291 34.6355 69.509ZM34.4968 68.6197C34.5169 68.6398 34.5762 68.6598 34.5964 68.6398C34.6166 68.5996 34.5169 68.6197 34.4968 68.6197ZM34.8147 67.275C34.7945 67.275 34.7756 67.275 34.7554 67.2951C34.7352 67.3541 34.6557 67.3152 34.6166 67.3152C34.4577 67.3942 34.6759 67.4531 34.7554 67.4143C34.8348 67.3754 34.7756 67.3152 34.8147 67.2763V67.275ZM34.6948 67.4732C34.6948 67.4143 34.6153 67.4732 34.5762 67.4732C34.6153 67.4732 34.6759 67.5134 34.6948 67.4732ZM34.7743 67.0179C34.6544 67.0179 34.7945 66.9777 34.715 66.9589C34.8739 66.8598 34.8147 66.8799 34.6557 66.8799C34.5762 66.979 34.7352 66.9389 34.6166 66.979C34.6759 67.038 34.5775 67.1371 34.6557 67.196C34.6557 67.1571 34.715 67.058 34.7756 67.0179H34.7743ZM34.7945 68.7978H34.6948C34.7352 68.838 34.7743 68.8179 34.7945 68.7978ZM34.9736 67.058C34.9345 67.038 34.8348 66.979 34.9345 66.979C35.0733 67.0191 35.014 66.9 34.9143 66.92C34.9345 66.979 34.8941 66.9401 34.8752 66.9401C34.8159 66.92 34.7957 66.979 34.7554 66.9991C34.8147 66.9991 34.8348 67.0191 34.8147 67.0781C34.8739 67.058 34.9345 67.058 34.9736 67.058ZM34.855 68.5608C34.8348 68.5608 34.7352 68.5808 34.7957 68.6197C34.8348 68.6197 34.855 68.5808 34.855 68.5608ZM34.9345 67.9286C34.8752 67.9286 34.7756 67.8884 34.7957 67.9875C34.8159 68.0465 34.9156 67.9875 34.9345 67.9286ZM34.9345 69.075C34.8954 69.055 34.8147 69.0349 34.7957 69.0951C34.8752 69.075 34.855 69.1741 34.8954 69.1352C34.8752 69.1152 34.9156 69.0951 34.9345 69.0763V69.075ZM34.9345 66.8598C34.855 66.8009 34.7957 66.9389 34.9143 66.9188H34.9345C35.0543 66.8398 34.7957 66.9188 34.9345 66.8598ZM34.855 68.6598H34.9345C34.9143 68.6197 34.8954 68.6197 34.855 68.6598ZM35.014 68.4617C34.9736 68.5018 34.8941 68.4228 34.8752 68.5206C34.9143 68.5005 35.0342 68.5005 35.014 68.4617ZM34.8941 67.8483C34.9143 67.9072 34.9332 67.9072 34.9736 67.8872C34.9534 67.8671 34.9345 67.8671 34.8941 67.8483ZM34.9938 68.5595C34.9938 68.5194 34.9345 68.5595 34.8941 68.5595C34.9534 68.5984 34.9736 68.5796 34.9938 68.5595ZM35.0342 67.0568C34.9749 67.0367 34.9749 67.0768 34.9749 67.1157C35.0342 67.1358 35.0152 67.0957 35.0342 67.0568ZM35.3924 62.8057C35.4328 62.8647 35.3331 62.8258 35.3129 62.8057C35.3331 62.7468 35.352 62.7066 35.352 62.6276C35.3129 62.6678 35.1338 62.6477 35.2726 62.6276C35.2335 62.5285 35.3722 62.6276 35.4113 62.6276C35.4706 62.5687 35.3912 62.5887 35.3319 62.5687C35.3117 62.4896 35.1931 62.4307 35.1325 62.4696C35.1527 62.4106 35.0934 62.4294 35.0531 62.4106C34.8941 62.4508 35.3117 62.6276 35.1124 62.5887C35.1717 62.6088 35.1124 62.6678 35.0733 62.6477C35.0342 62.7267 35.1326 62.7857 35.212 62.7468C35.3508 62.7267 35.1326 62.8057 35.2713 62.8459C35.2915 62.8258 35.3117 62.8459 35.3306 62.866H35.4694C35.4694 62.8459 35.4303 62.8258 35.3899 62.807L35.3924 62.8057ZM35.1931 67.5911C35.1729 67.6902 35.2133 67.6702 35.2726 67.6702C35.2524 67.6501 35.2928 67.63 35.2928 67.6112C35.2524 67.5911 35.2726 67.5723 35.3129 67.5723C35.3331 67.5924 35.352 67.5924 35.3722 67.5723C35.3722 67.5134 35.3331 67.4531 35.4113 67.4143C35.3722 67.4143 35.3912 67.3754 35.4113 67.3553C35.3319 67.2763 35.2322 67.3352 35.1527 67.3754C35.1729 67.3954 35.1918 67.4143 35.1527 67.4544C35.1729 67.4544 35.1918 67.4343 35.212 67.4343C35.1527 67.4933 35.2511 67.5134 35.1729 67.5334C35.1136 67.5334 35.0934 67.5334 35.1136 67.6125C35.0745 67.6125 35.0342 67.6125 35.0543 67.6714C35.1136 67.6513 35.1338 67.6313 35.1931 67.5924V67.5911ZM35.1931 61.382C35.1729 61.362 35.154 61.362 35.154 61.362C35.2537 61.303 35.2335 61.4021 35.3533 61.4209C35.2738 61.2829 35.1742 61.362 35.2537 61.2039C35.1742 61.2629 34.9559 61.1839 35.1149 61.303H35.0758C35.096 61.3231 35.1351 61.3231 35.1351 61.3432C35.0556 61.2842 35.0758 61.4021 35.0556 61.4623C35.0947 61.4222 35.1149 61.3632 35.1944 61.3833L35.1931 61.382ZM35.0733 62.1535C35.0934 62.1936 35.1729 62.1535 35.1527 62.2325C35.212 62.1535 35.2713 62.1133 35.0733 62.1535ZM35.3912 67.2349C35.3319 67.2349 35.2524 67.2349 35.1918 67.2938C35.2713 67.2738 35.4101 67.3139 35.3912 67.2349ZM35.2524 61.4611C35.2928 61.4611 35.3722 61.5 35.3912 61.4811C35.352 61.4611 35.3117 61.4222 35.2524 61.4611ZM35.3117 61.2629C35.2915 61.2428 35.2713 61.2629 35.2713 61.3018C35.3117 61.3018 35.3912 61.3018 35.3117 61.2629ZM35.4706 67.1747C35.4113 67.1345 35.371 67.1546 35.3319 67.2136C35.3912 67.2336 35.4315 67.1935 35.4706 67.1747ZM36.1064 61.441C36.1657 61.441 36.2452 61.382 36.2061 61.3419C36.1859 61.3218 36.2452 61.3018 36.2654 61.283C36.4836 61.303 36.2061 61.1839 36.1859 61.145C36.1859 61.2039 36.1657 61.1851 36.1064 61.165C36.1266 61.2052 36.0862 61.224 36.0673 61.2441C36.0412 61.2173 36.0282 61.224 36.0282 61.2641C35.9285 61.1851 35.9084 61.2842 35.8491 61.2842C35.8087 61.1462 35.7494 61.2453 35.7494 61.3043C35.7103 61.3043 35.6901 61.3043 35.7103 61.3444C35.651 61.3243 35.6107 61.3043 35.6901 61.2855C35.651 61.2466 35.6699 61.2466 35.6901 61.2265C35.6308 61.2064 35.5715 61.1876 35.511 61.2265C35.4719 61.2265 35.5312 61.1876 35.5312 61.1675C35.5312 61.1475 35.4921 61.1287 35.4719 61.1475C35.4517 61.1663 35.4126 61.1475 35.3924 61.2064C35.4328 61.2855 35.5514 61.1663 35.5123 61.3256C35.5123 61.3457 35.5324 61.3645 35.5715 61.3256C35.5917 61.3256 35.6308 61.3457 35.6712 61.3645C35.7116 61.3833 35.7709 61.3256 35.8301 61.3256C35.8301 61.3645 35.8503 61.3645 35.8705 61.3645C35.9096 61.3444 35.9298 61.4046 35.95 61.4234C35.8907 61.5225 35.9298 61.5025 36.0093 61.4636C35.9689 61.5627 36.1089 61.5025 36.148 61.5225C36.1077 61.4824 36.1682 61.4636 36.1077 61.4435L36.1064 61.441ZM35.4303 61.3218C35.4504 61.3808 35.4303 61.4009 35.3899 61.4209C35.4895 61.5401 35.5892 61.3419 35.4303 61.3218ZM35.6094 62.1924C35.6687 62.1334 35.5299 62.0933 35.6687 62.0933C35.5892 62.0343 35.5097 62.0531 35.4101 62.0343C35.4303 62.0933 35.4895 62.0933 35.5299 62.1133C35.4706 62.1924 35.5501 62.1924 35.5703 62.2513C35.5905 62.2112 35.709 62.2513 35.6094 62.1924ZM35.4504 60.9066C35.371 60.9066 35.4895 60.9656 35.5097 60.9267C35.4895 60.9267 35.4706 60.9066 35.4504 60.9066ZM35.4303 62.3303C35.4694 62.3504 35.4694 62.4094 35.5299 62.3705C35.5299 62.3571 35.4967 62.3437 35.4303 62.3303ZM35.4895 62.4294C35.4504 62.4294 35.4504 62.4094 35.4303 62.4495C35.4504 62.4495 35.4895 62.4696 35.4895 62.4294ZM35.5488 63.0428C35.6485 63.0227 35.5287 62.9437 35.4694 63.0039C35.5085 63.024 35.5287 63.0428 35.5085 63.083C35.5476 63.103 35.5476 63.0629 35.5476 63.0428H35.5488ZM35.6687 62.6678L35.5299 62.6088C35.5501 62.6489 35.5892 62.6678 35.6687 62.6678ZM36.0269 61.6392C35.9677 61.6191 35.9273 61.6003 35.9273 61.52C35.868 61.52 35.8478 61.579 35.7885 61.579C35.7292 61.579 35.7292 61.579 35.7292 61.6191C35.6889 61.6191 35.6699 61.6191 35.6296 61.599C35.643 61.6124 35.6498 61.6254 35.6498 61.6379C35.3319 61.5589 35.7696 61.7571 35.8491 61.658C35.8882 61.6379 35.9677 61.6379 36.0282 61.6379L36.0269 61.6392ZM35.569 61.1249C35.569 61.1638 35.6081 61.1839 35.6283 61.145C35.6081 61.1249 35.5892 61.1249 35.569 61.1249ZM35.7078 62.4294C35.7469 62.4294 35.8074 62.3906 35.8465 62.4294C35.8667 62.4696 35.8857 62.4495 35.926 62.4495C35.8869 62.4094 35.6674 62.3504 35.7078 62.4294ZM35.728 62.5285C35.7671 62.5285 35.7873 62.5285 35.8074 62.5486C35.8074 62.4896 35.7683 62.4896 35.728 62.5285ZM35.7482 61.8361L35.7873 61.8951C35.7873 61.8549 35.7873 61.8361 35.7482 61.8361ZM35.7683 60.9066H35.868C35.8478 60.8665 35.8087 60.8665 35.7683 60.9066ZM35.8276 62.3705H35.9866C35.9664 62.3504 35.8869 62.2714 35.8276 62.3705ZM35.9273 60.4526C35.9071 60.4526 35.868 60.4726 35.9071 60.4927C35.9273 60.4726 35.9462 60.4726 35.9273 60.4526ZM36.1064 60.4137C36.2452 60.3146 36.0068 60.2945 36.0068 60.3547C36.066 60.3547 36.0459 60.3748 36.0068 60.3748C35.9273 60.4337 36.0862 60.5328 36.1266 60.4739C36.1859 60.4337 36.1266 60.3949 36.1064 60.4149V60.4137ZM35.9878 60.8289C35.9878 60.8678 36.0269 60.928 36.0673 60.8878C36.0673 60.8489 36.0282 60.8289 35.9878 60.8289ZM36.1266 61.6593C36.0871 61.6333 36.0606 61.64 36.0471 61.6793C35.9878 61.7383 36.1468 61.7584 36.167 61.7182C36.2464 61.6793 36.167 61.6793 36.1279 61.6593H36.1266ZM36.2654 60.6708C36.2061 60.711 36.1859 60.6708 36.1266 60.6508C36.1064 60.7097 35.9677 60.6708 36.0862 60.7699C36.1266 60.7498 36.1859 60.6909 36.2654 60.79L36.3247 60.6708C36.3045 60.6708 36.2855 60.6508 36.2654 60.6708ZM36.1266 61.0271C36.1657 61.0471 36.2654 61.1262 36.2452 61.0471C36.2061 61.0271 36.1859 61.0471 36.1266 61.0271ZM36.4054 60.948C36.4054 60.928 36.4256 60.9092 36.4647 60.8891C36.4054 60.8502 36.3852 60.9292 36.3448 60.9292C36.2855 60.8891 36.225 60.8101 36.1657 60.9091C36.1266 60.9292 36.1859 60.9882 36.225 60.9681C36.2452 60.9882 36.225 60.9882 36.2048 60.9882C36.2439 61.0271 36.3839 61.0471 36.4041 60.948H36.4054ZM36.1871 60.5529C36.1279 60.5529 36.1871 60.5918 36.2263 60.5918C36.2263 60.5717 36.2061 60.5529 36.1871 60.5529ZM36.2666 61.6605L36.2073 61.6016V61.6605H36.2666ZM36.5454 60.5931C36.5193 60.5671 36.5261 60.5475 36.5656 60.5341C36.4861 60.435 36.6451 60.514 36.7044 60.4751C36.6451 60.435 36.4256 60.356 36.5454 60.435C36.5252 60.4551 36.4861 60.435 36.4659 60.4551C36.5252 60.4952 36.505 60.4952 36.4458 60.4952C36.505 60.5542 36.3663 60.5542 36.3865 60.6332H36.2868C36.3461 60.6533 36.3663 60.6921 36.3663 60.7524C36.3663 60.7122 36.4861 60.5943 36.5454 60.5943V60.5931ZM36.307 60.1779L36.3663 60.0988C36.307 60.0988 36.307 60.139 36.307 60.1779ZM36.7649 61.4636C36.8444 61.4636 36.7851 61.3055 36.9037 61.3256C36.8835 61.2855 36.9239 61.2666 36.963 61.2666C36.9239 61.2466 36.8835 61.2265 36.9428 61.2265C36.8835 61.1475 36.7838 61.1675 36.7044 61.1475C36.7044 61.2064 36.7044 61.2265 36.664 61.2466C36.6842 61.2466 36.7044 61.2466 36.7233 61.2666C36.6838 61.28 36.6703 61.3064 36.6829 61.3457C36.6438 61.3457 36.6438 61.3657 36.6438 61.4247C36.6047 61.4247 36.6438 61.3657 36.6236 61.3457C36.5845 61.3256 36.5441 61.3657 36.5441 61.4046C36.4647 61.3846 36.3852 61.5037 36.524 61.4435L36.5441 61.4636C36.6034 61.4046 36.6438 61.4435 36.5643 61.5025C36.7435 61.6016 36.6236 61.3645 36.7636 61.4636H36.7649ZM36.7056 60.6131C36.8053 60.6721 36.8646 60.652 36.7649 60.573C36.7258 60.5931 36.7056 60.573 36.6653 60.5328C36.6451 60.5529 36.6261 60.5529 36.5656 60.5529C36.6249 60.6319 36.5454 60.6909 36.7245 60.711C36.7044 60.6708 36.6451 60.6319 36.7044 60.6119L36.7056 60.6131ZM36.7258 59.6046C36.7056 59.6247 36.6463 59.6247 36.6463 59.6448C36.6854 59.6648 36.7056 59.6247 36.7258 59.6046ZM36.8646 59.9809C36.9037 59.9408 36.8646 59.8229 36.8242 59.922C36.7851 59.942 36.804 59.9809 36.7649 59.9609C36.7447 59.9609 36.7258 59.922 36.7258 59.9609C36.6665 59.9408 36.6665 59.9809 36.6854 60.0198C36.7649 60.0399 36.8053 59.9408 36.8646 59.9809ZM36.7649 60.7724C36.7258 60.6733 36.6451 60.8314 36.7258 60.8113C36.746 60.7912 36.7258 60.7724 36.7649 60.7724ZM36.7447 60.5153C36.8242 60.4764 36.7838 60.4363 36.7245 60.4764C36.6451 60.4764 36.7245 60.5755 36.804 60.5554C36.8444 60.5153 36.7838 60.5153 36.7447 60.5153ZM36.804 61.0885C36.8444 61.1475 36.9239 61.1287 36.9831 61.1475C37.0424 61.0685 36.8633 61.0685 36.804 61.0885ZM36.963 61.0496C36.9428 61.0697 37.0222 61.0885 37.0424 61.0885C37.1623 61.0685 37.0222 61.0095 36.963 61.0496ZM37.3414 59.6849C37.4007 59.6849 37.4411 59.6849 37.5004 59.6648C37.4411 59.6448 37.4411 59.6247 37.4802 59.6059C37.4007 59.5068 37.2417 59.8429 37.2417 59.6259C37.1623 59.646 37.2026 59.705 37.2417 59.7639C37.2821 59.7438 37.4209 59.7639 37.3414 59.6849ZM37.3616 60.2581C37.3355 60.2448 37.3355 60.2251 37.3616 60.1992C37.2619 60.1402 37.2026 60.2381 37.2821 60.2581C37.3023 60.2381 37.3414 60.2782 37.3616 60.2581ZM37.5609 59.3487C37.5205 59.3487 37.4612 59.3086 37.4612 59.3688C37.5205 59.3889 37.5811 59.4478 37.5609 59.3487ZM37.7198 59.4867C37.759 59.4466 37.8195 59.4466 37.8788 59.4466C37.8586 59.4265 37.7198 59.4064 37.8195 59.4064C37.8599 59.4265 37.8788 59.4265 37.9192 59.3864C37.899 59.3475 37.8195 59.3475 37.7804 59.3073C37.7602 59.2672 37.7413 59.3274 37.7009 59.3073C37.6807 59.3274 37.6807 59.3663 37.7211 59.3864C37.5218 59.3274 37.6416 59.5243 37.7413 59.5444C37.7211 59.5243 37.6618 59.4654 37.7211 59.4855L37.7198 59.4867ZM37.8788 59.7037C37.759 59.7238 37.7993 59.8618 37.8586 59.8028C37.7993 59.7627 37.8977 59.7238 37.8788 59.7037ZM37.8586 59.6247C37.8977 59.6448 37.9785 59.6247 38.0377 59.6448C38.0176 59.5457 37.899 59.6046 37.8586 59.6247ZM37.8586 59.6448C37.8788 59.6648 37.8977 59.6836 37.8977 59.7037C37.9368 59.6448 37.9179 59.6448 37.8586 59.6448ZM37.9785 59.4666C37.9192 59.4867 37.8397 59.5657 37.9583 59.5457V59.5068C37.9986 59.5068 38.0176 59.4867 37.9785 59.4666ZM37.9192 59.1894C37.9192 59.2296 37.9583 59.2296 37.9785 59.2484C37.9986 59.2095 37.9785 59.1894 37.9192 59.1894ZM38.0781 59.4265L37.9785 59.3675C37.9986 59.4064 38.0176 59.4466 38.0781 59.4265ZM38.2169 59.3274C38.2371 59.3274 38.2572 59.3073 38.2762 59.3274C38.3153 59.3475 38.3355 59.2885 38.3758 59.2885H38.396C38.396 59.2296 38.396 59.2095 38.3367 59.1694C38.3569 59.2484 38.2572 59.2283 38.2169 59.2283C38.2572 59.1882 38.1374 59.1493 38.1172 59.1882C38.0579 59.1882 38.0579 59.2283 37.9974 59.2283C38.0176 59.2873 38.0768 59.3475 38.1361 59.3274C38.1752 59.3073 38.1752 59.3675 38.2156 59.3274H38.2169ZM38.1172 59.4855C38.0579 59.4453 38.0377 59.4654 38.097 59.5055C38.1374 59.5256 38.1374 59.5055 38.1172 59.4855ZM38.3758 59.1292C38.3367 59.1882 38.4162 59.1882 38.4553 59.2082C38.4755 59.1681 38.396 59.1493 38.3758 59.1292ZM41.9357 71.3693C41.7768 71.3103 41.8361 71.3693 41.9155 71.4282C41.9155 71.4081 41.9155 71.3893 41.9357 71.3693ZM42.1741 71.0921L42.2738 71.151C42.2145 71.072 42.2145 71.0519 42.1741 71.0921ZM42.2536 71.1711L42.3331 71.23C42.3129 71.1711 42.294 71.1711 42.2536 71.1711ZM42.3129 70.9729C42.3533 71.0519 42.4126 71.0118 42.492 70.993C42.4327 70.993 42.3331 70.934 42.3129 70.9729ZM42.3722 71.0519V71.0921C42.3318 71.0921 42.3129 71.1121 42.352 71.151C42.3911 71.1121 42.4908 71.0519 42.3722 71.0519ZM42.492 70.9729L42.4327 70.9139C42.4126 70.9729 42.4327 70.9729 42.492 70.9729ZM42.5311 70.7948C42.492 70.8148 42.492 70.8349 42.511 70.8537C42.3722 70.9729 42.6699 70.8738 42.5311 70.7948ZM43.1669 70.4385C43.1278 70.4185 43.0875 70.4185 43.0471 70.4185C43.074 70.4452 43.074 70.4649 43.0471 70.4774C43.1001 70.5033 43.14 70.49 43.1669 70.4373V70.4385ZM43.4255 69.6282H43.4053C43.4053 69.7072 43.5643 69.7273 43.5252 69.6483C43.4861 69.6483 43.4659 69.5893 43.4255 69.6282ZM43.5252 69.5693C43.4659 69.6483 43.645 69.6684 43.7043 69.6483C43.645 69.6282 43.6047 69.5893 43.5252 69.5693ZM43.6841 59.5645C43.6639 59.5645 43.6248 59.6034 43.6639 59.6234C43.5643 59.6435 43.4848 59.6824 43.6047 59.7225C43.6639 59.7025 43.8229 59.5243 43.6841 59.5645ZM43.7838 69.4902C43.8431 69.4902 43.8633 69.4702 43.8229 69.4112C43.8822 69.3911 43.9024 69.4112 43.9427 69.4313C43.9831 69.4513 43.9818 69.3911 44.002 69.3723C44.0815 69.3924 44.1219 69.3134 44.002 69.3334V69.3134C43.9818 69.3535 43.9427 69.3334 43.9024 69.3334C44.0815 69.2343 43.7825 69.1955 43.862 69.3134C43.8027 69.3334 43.8229 69.2933 43.7623 69.2745C43.6829 69.2745 43.7422 69.4526 43.6236 69.4125C43.6627 69.4915 43.4848 69.4325 43.6034 69.5116C43.5037 69.5316 43.7232 69.6107 43.8027 69.5906C43.8027 69.5517 43.862 69.5116 43.7825 69.4915L43.7838 69.4902ZM43.7245 61.3243C43.6854 61.3243 43.5857 61.3043 43.6248 61.3632C43.6841 61.3833 43.7636 61.4034 43.7245 61.3243ZM43.6248 61.2654L43.7434 61.2064C43.6841 61.2265 43.6438 61.2064 43.6248 61.2654ZM43.9427 60.7712C43.9226 60.731 43.7434 60.8301 43.9036 60.731C43.8443 60.711 43.804 60.711 43.804 60.7712C43.7838 60.7511 43.7447 60.7511 43.7043 60.8301C43.7636 60.8301 43.7636 60.8502 43.7434 60.9091C43.8229 60.869 43.8431 60.8101 43.9427 60.7712ZM43.7838 69.9656C43.7245 69.9456 43.7245 69.9656 43.7043 69.9857C43.7304 70.0116 43.7569 70.0049 43.7838 69.9656ZM43.7636 60.9493C43.7897 60.976 43.8162 60.9827 43.8431 60.9694C43.8229 60.9493 43.804 60.9493 43.7636 60.9493ZM43.8431 60.297C43.8229 60.3171 43.804 60.3171 43.804 60.356C43.9427 60.3359 43.9427 60.2368 43.8431 60.297ZM44.0222 61.6618L44.0626 61.6229C44.0424 61.5639 43.9629 61.6229 43.9629 61.6028C43.9427 61.6028 43.9238 61.6028 43.9036 61.5827C43.8443 61.5439 43.804 61.6417 43.8633 61.6618C43.9226 61.6417 43.9831 61.6818 44.0222 61.6618ZM44.002 59.942C43.9427 59.922 43.9226 59.9621 43.8633 60.001H43.9036C43.804 60.0399 43.8834 60.1001 43.9427 60.0399C43.9629 60.001 44.0222 59.9609 44.002 59.9408V59.942ZM43.9818 61.0885C43.9427 61.0685 43.9024 61.1086 43.9427 61.1475C43.9629 61.1274 44.002 61.1274 43.9818 61.0885ZM43.9818 60.1202C43.9617 60.159 43.9427 60.2393 44.002 60.2393C44.0613 60.2193 43.9818 60.1603 43.9818 60.1202ZM44.1017 61.9189C44.1408 61.8399 44.0222 61.9189 43.9818 61.939C44.0411 61.9791 44.0815 61.959 44.1017 61.9189ZM44.1219 60.7724C44.0424 60.7724 43.9831 60.8314 44.0828 60.8715C44.1029 60.8326 44.142 60.8126 44.1219 60.7724ZM44.142 60.3372C44.1219 60.3372 44.0424 60.376 44.0828 60.3961C44.1219 60.3961 44.2215 60.3171 44.142 60.3372ZM44.1219 61.1086C44.0828 61.1287 44.142 61.2077 44.1812 61.1675C44.1812 61.1287 44.142 61.1475 44.1219 61.1086ZM44.2215 61.9189C44.1812 61.959 44.1017 61.939 44.142 61.9979C44.1812 61.9779 44.2013 61.959 44.2215 61.9189ZM44.3414 61.8988L44.4007 61.8587C44.4007 61.9177 44.4801 61.8988 44.5205 61.8587L44.5798 61.6806C44.5596 61.6806 44.5407 61.6806 44.5205 61.7195C44.4944 61.7061 44.4877 61.6864 44.5003 61.6605C44.5003 61.6404 44.4801 61.6404 44.4801 61.6404C44.4599 61.6605 44.4398 61.6605 44.4208 61.6404C44.3817 61.6404 44.3615 61.6605 44.4007 61.6806C44.4007 61.7007 44.3615 61.7195 44.3805 61.7395C44.3212 61.7395 44.2808 61.7596 44.3212 61.6605C44.2619 61.7007 44.2417 61.7007 44.2026 61.7195V61.7596C44.2619 61.7797 44.2228 61.7985 44.1824 61.8386C44.2417 61.8587 44.2821 61.7985 44.3212 61.8386C44.301 61.8587 44.2619 61.8788 44.2619 61.9177C44.2821 61.9377 44.3414 61.9578 44.3414 61.8976V61.8988ZM44.3212 60.7323C44.2619 60.7122 44.1029 60.8314 44.2417 60.8113C44.1219 60.8903 44.2619 60.8514 44.301 60.9493C44.4007 60.7712 44.2417 60.9292 44.3212 60.7323ZM44.3414 60.376C44.301 60.376 44.2619 60.356 44.2417 60.4162C44.2808 60.3961 44.3212 60.3961 44.3414 60.376ZM44.301 60.9894C44.2417 60.9894 44.2417 61.0095 44.2417 61.0685C44.2619 61.0283 44.2808 61.0095 44.301 60.9894ZM44.2619 59.9609C44.2228 60.0399 44.2821 60.0599 44.3212 60.001C44.2821 60.001 44.2619 60.001 44.2619 59.9609ZM44.2619 61.2466C44.301 61.2666 44.3414 61.2666 44.3414 61.3256C44.301 61.3457 44.2619 61.3055 44.2619 61.2466ZM44.3817 60.4751C44.3224 60.5542 44.4019 60.5542 44.4612 60.514C44.4612 60.4551 44.441 60.435 44.3817 60.4751ZM44.4019 60.5943C44.4019 60.6344 44.4019 60.6733 44.3628 60.6934C44.5016 60.6733 44.5621 60.5742 44.4019 60.5943ZM44.5016 60.3171C44.5609 60.2581 44.4221 60.297 44.4019 60.3171C44.4019 60.3372 44.3817 60.376 44.4221 60.3961C44.4221 60.3372 44.4612 60.3171 44.5016 60.3171ZM44.4814 60.9694C44.441 60.9694 44.3615 60.9493 44.4221 60.9894C44.4423 60.9894 44.4612 61.0095 44.4814 60.9694ZM44.5016 60.4952C44.5407 60.5153 44.5609 60.4952 44.6012 60.5341V60.4551C44.5621 60.4751 44.5419 60.4952 44.5016 60.4952Z" fill="#A4DBE8"/>
<g clip-path="url(#clip1_1729_13670)">
<rect x="80" y="58" width="48" height="24" rx="12" fill="#D7C9FB"/>
<circle cx="92" cy="70" r="8" fill="white"/>
<circle cx="114" cy="70" r="5" stroke="white" stroke-width="2"/>
</g>
<g clip-path="url(#clip2_1729_13670)">
<path d="M50.4956 98.2839C50.4735 98.1239 50.3334 98.0354 50.2175 98.0256C50.1019 98.016 47.655 97.8346 47.655 97.8346C47.655 97.8346 45.9556 96.1475 45.7691 95.9607C45.5825 95.7741 45.218 95.8309 45.0765 95.8725C45.0557 95.8787 44.7052 95.9868 44.1255 96.1662C43.5578 94.5327 42.556 93.0315 40.7934 93.0315C40.7448 93.0315 40.6947 93.0335 40.6446 93.0364C40.1434 92.3734 39.5224 92.0854 38.9861 92.0854C34.8803 92.0854 32.9188 97.2181 32.3038 99.8263C30.7084 100.321 29.575 100.672 29.4303 100.718C28.5397 100.997 28.5116 101.025 28.3946 101.864C28.3066 102.499 25.9766 120.519 25.9766 120.519L44.1331 123.921L53.9709 121.793C53.9709 121.793 50.5173 98.4439 50.4956 98.2839ZM43.122 96.4766L41.5857 96.9521C41.5862 96.8438 41.5868 96.7373 41.5868 96.6208C41.5868 95.6056 41.4458 94.7881 41.2197 94.1401C42.1279 94.2541 42.7327 95.2874 43.122 96.4766ZM40.0932 94.3414C40.3457 94.9741 40.5098 95.8821 40.5098 97.1073C40.5098 97.1699 40.5093 97.2273 40.5087 97.2852C39.5096 97.5947 38.4239 97.9307 37.3358 98.2678C37.9468 95.9099 39.092 94.771 40.0932 94.3414ZM38.8733 93.1867C39.0505 93.1867 39.2291 93.2469 39.3999 93.3645C38.0841 93.9836 36.6737 95.5431 36.078 98.6573L33.57 99.4341C34.2676 97.0587 35.9243 93.1867 38.8733 93.1867Z" fill="#95BF46"/>
<path d="M50.2174 98.0256C50.1018 98.016 47.6549 97.8346 47.6549 97.8346C47.6549 97.8346 45.9555 96.1475 45.769 95.9608C45.6992 95.8913 45.605 95.8557 45.5066 95.8403L44.1338 123.921L53.9707 121.793C53.9707 121.793 50.5171 98.4439 50.4954 98.2839C50.4734 98.1239 50.3332 98.0354 50.2174 98.0256Z" fill="#5E8E3E"/>
<path d="M40.7934 103.461L39.5803 107.07C39.5803 107.07 38.5175 106.503 37.2147 106.503C35.3048 106.503 35.2087 107.701 35.2087 108.003C35.2087 109.651 39.5046 110.283 39.5046 114.143C39.5046 117.18 37.5783 119.135 34.9811 119.135C31.8644 119.135 30.2705 117.196 30.2705 117.196L31.105 114.438C31.105 114.438 32.7434 115.845 34.1259 115.845C35.0292 115.845 35.3966 115.134 35.3966 114.614C35.3966 112.464 31.8723 112.369 31.8723 108.836C31.8723 105.863 34.0062 102.986 38.3137 102.986C39.9734 102.986 40.7934 103.461 40.7934 103.461Z" fill="white"/>
</g>
<g clip-path="url(#clip3_1729_13670)">
<rect x="80" y="96" width="48" height="24" rx="12" fill="#D7C9FB"/>
<circle cx="92" cy="108" r="8" fill="white"/>
<circle cx="114" cy="108" r="5" stroke="white" stroke-width="2"/>
</g>
<path d="M52.7606 150.917L51.5111 140.514C51.1751 137.713 48.7913 135.6 45.9664 135.6H34.0328C31.2079 135.6 28.8241 137.713 28.488 140.514L27.2398 150.917C27.05 152.499 27.5479 154.09 28.6075 155.282C29.6658 156.475 31.1886 157.158 32.7847 157.158H47.2159C48.8105 157.158 50.3335 156.475 51.3931 155.282C52.4512 154.091 52.9506 152.499 52.7606 150.917ZM49.338 153.474C48.7708 154.112 47.9883 154.464 47.1353 154.464H32.8656C32.0113 154.464 31.2284 154.112 30.6629 153.474C30.0957 152.836 29.8406 152.019 29.9417 151.172L31.1758 140.886C31.3531 139.41 32.61 138.295 34.0997 138.295H45.8999C47.3891 138.295 48.6465 139.409 48.8236 140.886L50.059 151.172C50.1602 152.019 49.9034 152.836 49.338 153.474Z" fill="#004956"/>
<path d="M47.1699 147.723C46.9734 147.423 46.6716 147.216 46.3198 147.142C45.9674 147.068 45.6085 147.136 45.3072 147.332C41.7142 149.672 38.2174 149.672 34.6176 147.331C34.3163 147.135 33.9564 147.068 33.605 147.143C33.2532 147.217 32.9517 147.424 32.7556 147.724C32.5594 148.025 32.4923 148.384 32.5667 148.736C32.641 149.087 32.8479 149.388 33.1491 149.584C35.3987 151.047 37.6921 151.788 39.9655 151.788C42.2393 151.788 44.5309 151.046 46.7773 149.583C47.0785 149.387 47.285 149.086 47.3591 148.734C47.4335 148.383 47.3663 148.024 47.1699 147.723Z" fill="#004956"/>
<g clip-path="url(#clip4_1729_13670)">
<rect x="80" y="134" width="48" height="24" rx="12" fill="#D7C9FB"/>
<circle cx="92" cy="146" r="8" fill="white"/>
<circle cx="114" cy="146" r="5" stroke="white" stroke-width="2"/>
</g>
<g clip-path="url(#clip5_1729_13670)">
<path fill-rule="evenodd" clip-rule="evenodd" d="M32.9702 184C31.6255 183.047 30.0085 182.519 28.3404 182.519C26.6723 182.519 26.8596 183.183 26.8596 184C26.8596 184.817 27.5234 185.481 28.3404 185.481C30.0085 185.481 31.6255 184.953 32.9702 184ZM40 191.03C39.0468 192.374 38.5191 193.991 38.5191 195.66C38.5191 197.328 39.183 197.14 40 197.14C40.817 197.14 41.4809 196.477 41.4809 195.66C41.4809 193.991 40.9532 192.374 40 191.03ZM47.0298 184C48.3745 184.953 49.9915 185.481 51.6596 185.481C53.3277 185.481 53.1404 184.817 53.1404 184C53.1404 183.183 52.4766 182.519 51.6596 182.519C49.9915 182.519 48.3745 183.047 47.0298 184ZM40 181.174L37.1745 184L40 186.826L42.8255 184L40 181.174ZM41.9745 179.098C43.5064 177.191 44.3404 174.809 44.3404 172.34C44.3404 169.872 42.4 168 40 168C37.6 168 35.6596 169.94 35.6596 172.34C35.6596 174.74 36.5106 177.191 38.0255 179.098L35.0979 182.026C33.1915 180.494 30.8085 179.66 28.3404 179.66C25.8723 179.66 24 181.6 24 184C24 186.4 25.9404 188.34 28.3404 188.34C30.7404 188.34 33.1915 187.489 35.0979 185.974L38.0255 188.902C36.4936 190.809 35.6596 193.191 35.6596 195.66C35.6596 198.128 37.6 200 40 200C42.4 200 44.3404 198.06 44.3404 195.66C44.3404 193.26 43.4894 190.809 41.9745 188.902L44.9021 185.974C46.8085 187.506 49.1915 188.34 51.6596 188.34C54.1277 188.34 56 186.4 56 184C56 181.6 54.0596 179.66 51.6596 179.66C49.2596 179.66 46.8085 180.511 44.9021 182.026L41.9745 179.098ZM40 170.86C39.183 170.86 38.5191 171.523 38.5191 172.34C38.5191 174.009 39.0468 175.626 40 176.97C40.9532 175.626 41.4809 174.009 41.4809 172.34C41.4809 170.672 40.817 170.86 40 170.86Z" fill="#1C0531"/>
</g>
<g clip-path="url(#clip6_1729_13670)">
<rect x="80" y="172" width="48" height="24" rx="12" fill="#D7C9FB"/>
<circle cx="92" cy="184" r="8" fill="white"/>
<circle cx="114" cy="184" r="5" stroke="white" stroke-width="2"/>
</g>
<path d="M40.4105 209.2L29.5996 215.605V228.398L32.6857 230.229L32.6639 217.433L40.3887 212.857L48.1136 217.433V230.224L51.1997 228.398V215.594L40.4105 209.2Z" fill="#F26322"/>
<path d="M41.9416 230.226L40.3999 231.146L38.85 230.235V217.433L35.7666 219.262L35.772 232.057L40.3971 234.8L45.0277 232.057V219.262L41.9416 217.433V230.226Z" fill="#F26322"/>
<g clip-path="url(#clip7_1729_13670)">
<rect x="80" y="210" width="48" height="24" rx="12" fill="#D7C9FB"/>
<circle cx="92" cy="222" r="8" fill="white"/>
<circle cx="114" cy="222" r="5" stroke="white" stroke-width="2"/>
</g>
</g>
<defs>
<filter id="filter0_d_1729_13670" x="0" y="0" width="152" height="262" filterUnits="userSpaceOnUse" color-interpolation-filters="sRGB">
<feFlood flood-opacity="0" result="BackgroundImageFix"/>
<feColorMatrix in="SourceAlpha" type="matrix" values="0 0 0 0 0 0 0 0 0 0 0 0 0 0 0 0 0 0 127 0" result="hardAlpha"/>
<feOffset dy="4"/>
<feGaussianBlur stdDeviation="4"/>
<feColorMatrix type="matrix" values="0 0 0 0 0 0 0 0 0 0 0 0 0 0 0 0 0 0 0.1 0"/>
<feBlend mode="normal" in2="BackgroundImageFix" result="effect1_dropShadow_1729_13670"/>
<feBlend mode="normal" in="SourceGraphic" in2="effect1_dropShadow_1729_13670" result="shape"/>
</filter>
<clipPath id="clip0_1729_13670">
<rect width="48" height="24" fill="white" transform="translate(80 20)"/>
</clipPath>
<clipPath id="clip1_1729_13670">
<rect width="48" height="24" fill="white" transform="translate(80 58)"/>
</clipPath>
<clipPath id="clip2_1729_13670">
<rect width="32" height="32" fill="white" transform="translate(24 92)"/>
</clipPath>
<clipPath id="clip3_1729_13670">
<rect width="48" height="24" fill="white" transform="translate(80 96)"/>
</clipPath>
<clipPath id="clip4_1729_13670">
<rect width="48" height="24" fill="white" transform="translate(80 134)"/>
</clipPath>
<clipPath id="clip5_1729_13670">
<rect width="32" height="32" fill="white" transform="translate(24 168)"/>
</clipPath>
<clipPath id="clip6_1729_13670">
<rect width="48" height="24" fill="white" transform="translate(80 172)"/>
</clipPath>
<clipPath id="clip7_1729_13670">
<rect width="48" height="24" fill="white" transform="translate(80 210)"/>
</clipPath>
</defs>
</svg>
